<?xml version="1.0" standalone="no"?>
<!DOCTYPE svg PUBLIC "-//W3C//DTD SVG 20010904//EN"
 "http://www.w3.org/TR/2001/REC-SVG-20010904/DTD/svg10.dtd">
<svg version="1.0" xmlns="http://www.w3.org/2000/svg"
 width="958.000000pt" height="1120.000000pt" viewBox="0 0 958.000000 1120.000000"
 preserveAspectRatio="xMidYMid meet">
<metadata>
Created by potrace 1.15, written by Peter Selinger 2001-2017
</metadata>
<g transform="translate(0.000000,1120.000000) scale(0.100000,-0.100000)"
fill="#000000" stroke="none">
<path d="M3405 11175 c-31 -30 -33 -88 -8 -202 11 -49 13 -78 7 -80 -28 -9
-405 -229 -509 -298 -696 -452 -1267 -1090 -1634 -1822 -265 -531 -441 -1162
-490 -1766 -33 -389 21 -984 126 -1400 19 -77 37 -145 40 -153 4 -10 -3 -14
-26 -14 -73 0 -294 -110 -320 -159 -17 -31 -14 -55 29 -225 43 -170 47 -202
28 -209 -22 -8 -48 13 -48 37 0 35 -60 83 -114 91 -53 8 -144 -15 -170 -43
-53 -60 -26 -380 45 -527 30 -62 104 -153 116 -142 3 4 -15 51 -40 105 -25 54
-58 139 -73 190 -23 81 -26 107 -22 195 3 67 9 112 20 131 l16 30 5 -30 c4
-16 11 -67 17 -114 24 -181 90 -452 117 -482 34 -37 118 -13 153 45 11 18 20
50 20 73 0 56 18 71 68 56 l37 -11 209 -733 c115 -403 263 -917 328 -1143 234
-805 312 -1085 305 -1091 -1 -1 -55 -9 -121 -18 -65 -9 -139 -25 -164 -36 -43
-19 -169 -45 -251 -52 -19 -2 -36 -9 -39 -16 -4 -12 34 -13 214 -8 241 7 363
-5 197 -19 -51 -4 -93 -11 -93 -15 0 -13 153 -33 245 -32 52 0 84 -3 75 -8
-20 -11 -143 -29 -253 -38 -48 -4 -88 -11 -90 -17 -1 -6 51 -14 128 -20 l130
-10 -117 -14 c-169 -20 -158 -36 30 -44 81 -4 161 -10 177 -14 l30 -7 -25 -7
c-14 -4 -62 -7 -107 -8 -46 -1 -83 -5 -83 -10 0 -10 7 -12 145 -36 50 -9 97
-20 105 -25 9 -5 17 -36 21 -81 7 -79 21 -99 71 -99 21 0 28 -5 28 -20 0 -14
7 -20 21 -20 12 0 54 -15 93 -34 39 -19 84 -38 100 -42 28 -7 28 -7 -20 -27
-27 -12 -52 -26 -56 -31 -4 -6 -85 -15 -188 -20 -99 -5 -180 -12 -180 -16 0
-9 173 -20 329 -21 64 -1 130 -5 146 -9 l30 -8 -35 -2 c-19 -1 -147 -7 -285
-13 -137 -7 -250 -16 -250 -20 0 -4 131 -10 290 -13 316 -6 408 -14 435 -39
22 -20 112 -55 143 -55 20 -1 21 -2 4 -14 -32 -25 -17 -33 71 -39 100 -6 137
-18 144 -44 4 -14 22 -21 85 -31 103 -16 501 -115 590 -146 37 -13 95 -27 128
-31 33 -3 181 -24 329 -46 272 -40 581 -77 823 -99 183 -17 1032 -8 1288 14
300 25 755 83 839 107 22 6 62 12 90 13 61 3 187 46 511 171 440 171 408 157
427 196 9 20 28 43 41 52 14 9 28 30 32 46 3 16 13 32 21 35 30 11 12 621 -21
733 -31 104 -139 164 -539 298 -502 168 -873 234 -1636 292 -298 22 -1355 25
-1685 5 -547 -34 -663 -48 -1024 -123 -156 -32 -294 -59 -307 -59 -14 0 -31
12 -44 31 -55 77 -1082 2289 -1042 2244 5 -6 62 -79 128 -164 262 -339 494
-575 805 -817 623 -486 1415 -820 2164 -913 423 -53 914 -55 1285 -5 243 32
633 126 865 208 121 42 115 45 214 -88 38 -52 78 -99 89 -105 24 -13 98 -2
113 16 12 13 9 108 -7 269 l-6 61 161 87 c282 152 603 354 697 440 41 36 46
46 40 69 -3 15 -19 42 -35 60 l-29 32 -44 -21 c-23 -12 -110 -66 -193 -119
-317 -207 -638 -387 -655 -368 -4 4 -15 32 -25 61 -15 48 -15 55 -1 77 9 14
70 51 148 90 508 255 1109 783 1479 1300 225 313 289 426 466 819 146 326 260
757 318 1209 21 164 21 799 0 982 -39 337 -145 744 -286 1093 -455 1128 -1410
2038 -2554 2433 -265 91 -574 164 -830 194 -282 34 -894 29 -1169 -10 -191
-27 -515 -109 -758 -192 l-137 -47 -25 23 c-34 32 -41 68 -19 94 10 11 56 38
103 60 146 67 171 98 143 170 -23 56 -44 56 -196 4 l-132 -46 -85 89 -86 90
-52 0 c-43 0 -58 -5 -77 -25z m146 -97 c32 -34 59 -69 59 -78 0 -19 -49 -50
-79 -50 -28 0 -50 37 -61 104 -9 58 -5 86 12 86 5 0 37 -28 69 -62z m398 -64
c-17 -20 -45 -34 -180 -89 -263 -107 -647 -311 -884 -470 -686 -459 -1288
-1177 -1626 -1940 -193 -436 -309 -875 -365 -1385 -27 -237 -24 -687 5 -929
108 -906 444 -1687 1029 -2394 97 -118 357 -383 492 -501 274 -242 576 -444
919 -615 355 -178 792 -317 1226 -390 293 -50 381 -56 785 -56 343 0 403 3
555 23 352 47 693 131 971 238 371 142 778 359 1034 549 90 67 132 85 146 64
10 -16 -31 -50 -171 -143 -532 -352 -1055 -571 -1671 -700 -291 -60 -555 -86
-884 -86 -982 0 -1920 308 -2696 885 -790 587 -1420 1544 -1668 2532 -83 333
-123 633 -133 993 -19 737 138 1443 467 2100 97 193 165 310 295 505 399 597
887 1063 1503 1434 143 86 362 194 597 294 232 98 224 95 249 96 16 1 16 -1 5
-15z m1546 -133 c46 -9 48 -9 -102 -40 -106 -23 -141 -39 -176 -80 -24 -29
-28 -41 -42 -123 -3 -20 -22 -61 -41 -90 -43 -64 -56 -95 -49 -118 7 -21 47
-40 85 -40 17 0 30 -5 30 -10 0 -18 -62 -39 -87 -29 -12 4 -91 55 -176 112
-172 116 -301 184 -428 225 l-87 28 50 42 c76 63 240 106 478 125 91 7 506 6
545 -2z m745 -179 c63 -43 142 -103 175 -135 33 -32 76 -67 96 -77 53 -28 171
-124 275 -223 74 -71 85 -86 66 -87 -40 0 -81 28 -201 142 -190 180 -403 354
-558 455 -46 30 -83 57 -83 60 0 9 111 -56 230 -135z m-170 24 c171 -113 467
-367 579 -495 82 -94 35 -61 -139 99 -85 78 -189 167 -230 198 -104 76 -360
282 -360 288 0 7 51 -24 150 -90z m-2346 22 c34 -69 30 -79 -47 -104 -29 -9
-57 -19 -64 -21 -14 -6 -53 67 -53 100 0 13 8 31 18 40 23 21 83 47 102 44 8
-1 28 -28 44 -59z m2168 -7 c151 -88 408 -296 394 -319 -3 -6 -14 -8 -23 -5
-15 6 -404 313 -443 349 -26 25 4 15 72 -25z m-1637 -28 c-190 -176 -595 -347
-873 -369 -54 -5 -74 -3 -67 4 14 15 225 126 291 153 48 20 58 21 76 10 19
-12 23 -11 35 5 7 10 13 21 13 25 0 11 111 65 215 104 129 49 326 114 345 114
8 0 -7 -21 -35 -46z m1595 -42 c178 -126 800 -703 800 -742 0 -16 -46 21 -175
141 -206 193 -425 378 -580 490 -136 99 -165 123 -171 142 -8 26 13 40 40 26
12 -6 50 -31 86 -57z m-2348 -2 c21 -54 23 -99 5 -99 -18 0 -424 -243 -553
-331 -166 -113 -346 -270 -589 -513 -236 -236 -321 -334 -464 -534 -313 -439
-579 -1006 -691 -1477 -75 -311 -105 -590 -105 -960 0 -528 75 -982 239 -1460
392 -1143 1310 -2110 2412 -2539 240 -93 593 -194 824 -236 696 -124 1343 -80
2073 140 71 22 149 42 173 46 43 6 44 6 59 -30 8 -19 15 -48 15 -65 0 -25 -6
-31 -52 -50 -170 -68 -506 -157 -778 -205 -249 -44 -327 -50 -700 -50 -360 -1
-466 5 -730 40 -384 51 -799 182 -1225 388 -510 247 -872 508 -1217 880 -455
491 -706 874 -916 1402 -248 622 -351 1161 -339 1774 10 480 79 887 223 1311
332 979 1007 1836 1869 2372 171 106 427 248 440 244 5 -2 18 -24 27 -48z
m1003 -23 c59 -25 144 -66 189 -91 111 -64 327 -208 350 -233 18 -21 18 -21
-67 -76 -47 -30 -88 -60 -92 -66 -18 -30 16 -20 114 31 l107 57 44 -41 c166
-150 330 -311 330 -323 0 -8 -21 -28 -47 -45 -71 -44 -494 -256 -569 -285 -70
-26 -124 -61 -124 -79 0 -7 19 -11 47 -11 l47 1 41 -67 c47 -78 59 -92 75 -86
8 2 -5 35 -35 92 -54 103 -64 86 90 157 55 26 174 87 265 136 91 50 189 101
217 113 l53 22 35 -26 c42 -32 253 -260 336 -364 l59 -74 -22 -17 c-13 -10
-50 -33 -83 -51 -83 -46 -145 -89 -145 -100 0 -23 54 -6 172 54 l127 64 68
-82 c77 -92 309 -399 335 -444 22 -37 39 -25 -243 -173 -265 -138 -329 -176
-329 -195 0 -8 4 -14 10 -14 19 0 158 59 363 154 114 53 223 102 242 110 l35
15 23 -37 c84 -133 97 -161 108 -233 14 -93 7 -170 -22 -253 l-23 -65 29 -60
c27 -57 27 -62 12 -79 -25 -27 -21 -42 12 -42 15 0 40 -9 55 -21 35 -28 99
-163 131 -279 53 -189 123 -301 217 -345 l47 -22 -70 -51 c-63 -48 -83 -72
-60 -72 5 0 62 25 125 57 68 33 128 56 146 55 19 0 35 6 44 19 9 14 15 16 18
8 3 -8 24 -13 56 -14 50 -1 55 -4 115 -63 75 -74 118 -92 247 -99 124 -7 183
10 292 84 46 31 108 73 138 94 108 73 126 64 172 -88 l29 -97 -23 -18 c-49
-37 -588 -370 -646 -399 -34 -17 -70 -29 -79 -27 -13 2 -33 43 -69 138 -29 74
-68 179 -89 232 -35 91 -58 128 -71 115 -3 -3 31 -113 75 -244 45 -131 81
-252 81 -270 0 -29 -6 -36 -67 -71 -233 -134 -936 -472 -983 -472 -25 0 -227
590 -231 673 -4 77 -28 87 -97 38 -56 -41 -60 -51 -18 -51 27 0 40 -6 52 -25
17 -26 179 -469 208 -568 29 -101 29 -102 -81 -154 -256 -119 -727 -302 -910
-353 -126 -36 -180 -38 -216 -10 -36 28 -48 25 -40 -10 5 -26 3 -30 -17 -30
-13 0 -112 43 -220 96 -233 112 -243 114 -522 94 -199 -14 -228 -9 -322 48
-32 19 -97 66 -145 104 -76 62 -89 69 -116 63 -16 -4 -80 -10 -140 -14 -113
-8 -147 -18 -164 -49 -9 -15 -32 -17 -251 -17 -220 0 -243 2 -255 18 -22 30
-116 410 -104 422 2 2 50 8 106 13 95 8 104 11 133 41 40 39 36 65 -20 114
-50 46 -79 53 -150 39 -114 -24 -117 -21 -159 163 -40 172 -41 175 -57 175
-15 0 -15 2 12 -175 15 -99 18 -175 7 -175 -5 0 -30 7 -58 16 -65 21 -307 30
-400 16 -55 -9 -75 -17 -92 -37 -63 -72 16 -122 230 -145 56 -6 127 -21 157
-33 42 -16 75 -21 137 -20 96 2 81 23 149 -207 75 -250 69 -310 -49 -458 -53
-68 -94 -94 -184 -117 -78 -20 -97 -19 -130 9 -27 23 -27 25 -10 43 22 25 22
33 -2 33 -57 0 -123 113 -142 242 l-11 76 -114 4 c-75 2 -117 7 -126 16 -8 8
-14 48 -16 113 -3 79 0 113 17 168 12 38 21 78 21 89 0 20 -65 112 -79 112 -5
0 -24 -30 -44 -67 l-36 -68 -10 28 c-7 19 -17 27 -29 25 -23 -4 -27 -52 -9
-121 8 -31 11 -60 6 -69 -5 -8 -35 -27 -69 -42 -103 -46 -152 -28 -175 66 -6
23 -2 30 29 50 20 13 36 28 36 33 0 6 -19 17 -42 25 -64 23 -81 59 -86 189 -5
112 10 243 32 276 7 11 20 42 29 69 23 68 51 96 97 96 45 0 65 -21 75 -77 8
-48 17 -54 32 -21 6 14 19 23 34 23 18 0 29 10 42 38 14 27 25 37 41 37 13 0
35 9 50 21 15 11 33 18 41 16 21 -9 114 -146 127 -189 13 -43 39 -56 85 -41
l28 10 0 189 c0 219 3 230 98 348 98 122 136 232 137 391 0 113 11 142 76 205
31 30 60 65 65 77 4 12 36 44 71 70 34 27 82 65 105 87 41 37 43 41 43 97 0
52 2 59 20 59 11 0 28 9 38 20 9 12 53 32 97 45 44 14 89 31 100 39 12 8 35
43 53 78 17 34 43 76 56 93 23 29 25 29 43 12 29 -26 50 -21 62 14 16 46 14
61 -14 99 -14 19 -25 44 -25 57 0 14 -6 23 -15 23 -10 0 -15 -10 -15 -29 0
-16 -7 -36 -15 -45 -27 -27 -135 -48 -135 -27 0 14 44 66 155 181 113 118 171
197 209 288 14 34 26 64 26 67 0 12 -24 3 -51 -19 l-29 -25 -24 24 c-56 56
-156 84 -171 48 -4 -10 -11 -91 -15 -180 -5 -90 -11 -167 -15 -173 -3 -5 -13
-10 -20 -10 -11 0 -14 13 -12 54 1 30 -2 58 -6 63 -16 15 -37 -30 -37 -78 0
-64 -18 -145 -36 -160 -12 -10 -14 -3 -14 47 0 90 19 283 33 338 14 57 29 67
45 31 16 -36 32 -22 32 27 0 34 6 46 36 74 45 40 41 67 -7 57 l-32 -6 7 49 c4
27 15 60 24 74 l16 25 10 -27 c14 -39 36 -36 37 5 1 25 3 20 10 -19 22 -129
57 -145 148 -67 57 48 81 101 80 178 -1 90 -6 97 -80 112 -104 19 -115 18
-126 -19 l-10 -33 -10 25 c-6 14 -14 53 -18 88 -4 34 -10 62 -15 62 -4 0 -10
-41 -12 -92 -5 -80 -9 -94 -27 -106 -11 -8 -21 -25 -21 -37 0 -14 -11 -30 -28
-42 -50 -32 -142 -147 -142 -177 0 -10 9 -16 24 -16 25 0 60 35 72 72 15 49
32 -36 18 -89 -5 -18 -14 -23 -39 -23 -40 0 -41 -3 -51 -132 -11 -165 -22
-177 -23 -25 -1 110 -4 137 -15 137 -24 0 -42 -182 -52 -540 -4 -140 -11 -266
-15 -280 -10 -35 -10 319 1 475 25 370 25 355 2 355 -22 0 -29 -17 -47 -110
-13 -61 -32 -87 -132 -173 -118 -101 -125 -109 -129 -148 -5 -45 -65 -153 -75
-137 -5 7 -6 73 -2 146 7 141 -6 181 -23 70 -8 -59 -11 -63 -35 -61 -38 2
-180 60 -213 86 -25 21 -28 28 -22 60 4 19 21 57 39 84 26 39 38 49 64 51 26
3 34 9 39 30 11 43 48 86 103 115 l51 28 0 -105 c0 -58 4 -106 9 -106 5 0 14
37 21 83 15 102 34 146 99 222 28 32 54 68 57 79 4 12 12 25 19 31 7 5 15 28
18 50 4 21 20 57 37 80 43 56 70 114 70 152 0 27 5 35 33 47 17 7 46 28 62 46
37 40 84 64 162 84 86 23 90 22 112 -30 24 -54 41 -50 41 11 0 67 14 95 48 95
39 0 66 -22 107 -86 19 -30 46 -59 59 -64 13 -5 41 -27 61 -49 21 -22 42 -38
46 -35 5 3 28 -13 51 -35 35 -32 41 -42 31 -52 -21 -21 -15 -29 20 -29 20 0
41 -7 50 -17 8 -10 36 -101 62 -202 52 -202 62 -231 82 -231 19 0 17 11 -32
211 -25 100 -45 196 -45 213 0 44 22 70 74 90 63 24 58 37 -13 30 -43 -5 -60
-3 -66 7 -5 8 -4 14 4 17 7 2 32 22 57 43 25 21 52 39 60 39 20 0 156 132 209
203 55 72 58 105 15 143 -30 27 -120 196 -120 224 1 30 73 -67 113 -152 43
-90 56 -101 89 -71 17 15 20 15 46 -10 45 -43 123 -181 129 -227 6 -41 7 -42
37 -36 29 6 86 51 86 68 0 4 -13 8 -29 8 -36 0 -93 61 -154 165 -37 62 -42 78
-43 137 -1 77 -20 115 -62 124 -72 15 -99 37 -116 92 -6 17 -3 22 11 22 23 0
100 48 127 78 11 12 22 22 26 22 4 0 56 -20 115 -44z m1245 -168 c114 -60 250
-143 250 -152 0 -3 -19 4 -42 14 -24 11 -52 20 -63 20 -11 0 -53 18 -94 41
-81 44 -268 166 -277 180 -8 14 94 -33 226 -103z m-405 53 c28 -21 61 -42 75
-48 82 -34 541 -443 497 -443 -9 0 -24 11 -33 25 -8 13 -39 37 -67 53 -29 16
-110 80 -182 142 -220 191 -258 221 -310 247 -60 30 -87 52 -79 65 9 14 44 -1
99 -41z m1100 -227 c144 -123 327 -307 313 -315 -18 -11 -56 14 -181 122 -193
166 -329 322 -239 275 15 -8 63 -45 107 -82z m-1128 45 c58 -22 82 -59 98
-152 8 -52 34 -72 140 -107 51 -17 100 -37 110 -44 29 -21 11 -44 -56 -76
l-62 -29 -26 20 c-56 44 -323 294 -332 311 -12 23 1 42 46 70 35 21 44 22 82
7z m1910 -10 c73 -28 144 -72 258 -163 164 -131 178 -139 255 -147 88 -10 166
-50 255 -131 79 -73 108 -117 99 -152 -8 -35 14 -34 57 1 l32 27 31 -38 c102
-127 274 -352 317 -415 54 -80 63 -126 24 -126 -15 0 -64 65 -195 259 -97 143
-181 261 -187 263 -6 2 -21 -11 -34 -29 -53 -77 -105 -122 -175 -148 -22 -9
-25 -8 -20 6 27 69 16 79 -42 39 -20 -14 -45 -25 -55 -25 -17 0 -172 48 -313
96 -75 26 -144 75 -144 102 0 9 9 41 20 70 11 29 20 63 20 77 0 13 5 27 10 30
6 3 10 20 10 37 0 42 -59 97 -175 163 -191 110 -239 141 -258 167 -17 22 -18
30 -7 43 20 24 145 20 217 -6z m-3518 -124 c15 -141 43 -277 58 -282 6 -2 15
9 21 24 8 25 10 21 21 -44 7 -40 10 -78 8 -85 -3 -7 -6 -2 -6 12 -2 35 -12 47
-45 56 -50 12 -82 129 -87 314 -4 180 11 182 30 5z m-343 60 c-3 -8 -13 -54
-22 -102 -28 -151 -62 -184 -72 -68 -2 30 -8 55 -11 55 -4 0 -13 -17 -20 -37
-30 -85 -61 -104 -61 -37 0 49 -21 43 -48 -15 -24 -52 -52 -75 -52 -41 0 35
49 175 75 213 28 40 45 46 65 22 16 -19 30 -19 30 -1 0 19 15 24 74 25 39 1
47 -2 42 -14z m2667 -92 c99 -87 251 -253 384 -418 111 -139 182 -247 214
-328 18 -45 18 -49 3 -36 -9 8 -23 29 -31 48 -8 18 -30 56 -49 83 -19 28 -34
61 -34 73 0 15 -11 30 -32 44 -40 25 -199 184 -266 266 -27 33 -110 125 -186
204 -75 79 -136 147 -136 152 0 17 55 -19 133 -88z m-3103 -101 c0 -53 -114
-401 -156 -478 -19 -33 -34 -71 -34 -82 0 -12 -4 -22 -10 -22 -12 0 -13 34 -1
80 5 19 12 50 15 68 8 49 -18 41 -34 -10 -15 -54 -54 -131 -72 -144 -17 -13
-98 -37 -105 -31 -2 3 12 59 32 124 65 215 93 283 135 333 18 22 21 22 16 5
-12 -50 -17 -125 -8 -125 10 0 72 140 72 163 0 14 56 70 105 105 32 23 45 27
45 14z m3981 -26 c42 -18 91 -43 109 -56 l33 -24 -64 -57 c-35 -32 -61 -61
-57 -64 3 -3 28 8 55 24 27 17 66 37 86 46 34 14 40 14 68 0 50 -27 69 -69 69
-158 0 -75 10 -113 34 -129 20 -14 71 -8 96 11 l24 19 11 -29 c6 -17 32 -44
65 -66 72 -50 123 -115 294 -373 239 -359 520 -842 623 -1070 46 -101 49 -115
32 -125 -28 -18 -72 48 -249 370 -179 327 -230 403 -260 393 -7 -2 -3 -14 9
-30 12 -14 21 -33 21 -41 0 -20 -29 -43 -39 -31 -13 14 -222 329 -312 471 -45
70 -100 146 -124 170 -53 52 -131 168 -141 207 l-7 30 31 -23 c18 -12 62 -56
99 -96 37 -41 73 -77 80 -79 26 -10 12 23 -42 97 -31 42 -65 97 -76 122 -16
36 -25 45 -45 45 -28 0 -95 -32 -209 -100 -44 -27 -85 -50 -91 -52 -12 -3
-176 177 -249 274 -26 35 -57 83 -69 107 l-21 43 47 42 c56 50 71 78 63 116
-7 32 0 50 18 50 7 0 46 -15 88 -34z m-1091 -126 c75 -58 121 -68 91 -21 -15
23 -2 40 36 47 106 20 193 -72 193 -207 0 -25 7 -54 15 -65 22 -29 18 -82 -11
-144 -26 -56 -88 -130 -110 -130 -29 0 -424 462 -424 497 0 13 102 73 125 73
11 -1 49 -23 85 -50z m-3254 -172 c-8 -53 -63 -233 -82 -270 -12 -23 -21 -28
-52 -28 -34 0 -39 -4 -50 -33 -17 -48 -17 -49 34 -45 l45 3 -6 -35 c-19 -106
-151 -300 -205 -300 -14 0 -21 -12 -29 -50 -17 -77 -14 -100 9 -100 11 0 26
-12 34 -29 17 -31 34 -41 74 -41 58 0 72 -10 65 -43 -6 -29 -5 -30 22 -25 22
5 35 0 56 -21 36 -37 48 -83 39 -161 -4 -36 -11 -169 -14 -297 -4 -128 -13
-299 -20 -381 -10 -99 -11 -173 -5 -223 19 -170 8 -234 -53 -292 -22 -21 -42
-37 -44 -35 -2 2 -17 112 -34 243 -17 132 -35 244 -40 249 -7 7 -10 -103 -10
-307 0 -294 -9 -391 -23 -264 -24 202 -19 497 18 1051 8 116 12 212 10 215
-15 14 -26 -28 -45 -164 -31 -229 -41 -285 -51 -285 -11 0 -11 62 1 200 5 58
5 109 0 114 -5 5 -11 -6 -14 -25 -3 -19 -13 -78 -22 -132 -8 -54 -21 -117 -27
-139 -12 -39 -39 -69 -52 -56 -3 3 1 56 9 117 18 125 21 251 7 251 -11 0 -31
-92 -56 -244 -16 -102 -31 -147 -52 -154 -18 -5 -17 18 17 227 34 219 40 282
23 288 -12 5 -29 -63 -63 -262 -26 -148 -50 -255 -57 -255 -3 0 -11 7 -18 17
-17 22 -49 10 -42 -17 7 -27 -12 -14 -23 16 -12 31 -30 31 -30 1 0 -33 -25
-65 -40 -51 -15 15 -3 96 50 359 39 187 77 329 79 290 0 -11 -13 -112 -29
-225 -34 -237 -38 -337 -14 -347 40 -15 51 31 89 365 14 122 28 229 31 237 5
11 22 15 65 15 33 0 59 4 59 10 0 6 18 10 39 10 41 0 71 20 71 46 0 12 -11 15
-47 13 l-48 -3 3 37 c4 45 -11 48 -28 7 -14 -35 -64 -80 -87 -80 -20 0 -14 41
29 193 40 144 46 187 24 187 -21 0 -46 -57 -86 -195 -16 -57 -39 -123 -50
-147 l-20 -43 6 95 c6 102 -4 112 -25 25 -28 -113 -71 -170 -79 -103 -7 57 94
312 131 329 9 5 24 12 33 17 8 4 25 33 38 64 47 115 133 205 205 215 l40 5
-34 -103 c-37 -115 -46 -170 -29 -176 11 -4 38 54 88 192 14 39 35 78 46 88
24 20 25 30 5 47 -12 10 -27 11 -60 3 l-44 -10 31 46 c17 25 59 75 93 111 34
36 70 80 79 98 23 44 30 40 23 -13 -4 -25 -3 -45 3 -45 15 0 39 42 46 80 4 19
11 44 17 55 10 21 47 65 55 65 3 0 2 -19 -2 -42z m4130 -56 c50 -7 299 -271
277 -293 -12 -12 -53 5 -66 27 -4 8 -19 14 -32 14 -21 0 -25 -5 -25 -30 0 -29
-2 -30 -44 -30 -53 0 -76 8 -76 25 0 7 -16 46 -35 86 -36 78 -64 202 -51 234
6 18 8 17 19 -5 7 -14 22 -26 33 -28z m1611 -259 c100 -140 193 -289 193 -311
0 -29 -44 12 -93 89 -169 259 -247 385 -247 399 1 20 40 -27 147 -177z m-120
19 c68 -102 190 -327 205 -375 8 -28 8 -41 0 -49 -18 -18 -59 35 -166 207
-151 243 -171 295 -113 295 18 0 35 -18 74 -78z m-897 -33 c30 -38 75 -102 99
-142 24 -40 74 -110 111 -157 128 -161 320 -463 320 -503 0 -10 -8 -17 -20
-17 -13 0 -34 21 -61 63 -77 112 -280 390 -384 522 -107 137 -185 250 -185
270 0 12 35 33 55 34 6 0 35 -31 65 -70z m748 21 c33 -37 238 -393 253 -438 8
-23 8 -37 1 -44 -15 -15 -30 -2 -58 55 -15 29 -70 120 -124 202 -108 167 -144
231 -135 245 11 18 37 10 63 -20z m-896 -47 c47 -50 138 -185 138 -204 0 -20
-84 -69 -119 -69 -21 0 -108 96 -136 150 -16 31 -20 70 -7 70 4 0 50 -43 102
-95 52 -52 98 -95 102 -95 20 0 3 36 -58 117 -68 91 -88 128 -78 144 10 16 30
10 56 -18z m781 -4 c60 -49 281 -395 293 -459 4 -18 -1 -31 -15 -44 -20 -19
-22 -19 -41 -1 -11 10 -46 59 -77 109 -32 50 -96 152 -144 227 -48 74 -94 150
-103 167 l-17 32 33 0 c23 0 46 -10 71 -31z m-142 -31 c72 -77 252 -376 298
-494 20 -52 15 -82 -12 -71 -8 3 -32 33 -53 67 -22 34 -96 149 -166 255 -150
227 -156 239 -138 260 19 23 38 18 71 -17z m-1531 -39 c41 -6 132 -29 202 -50
l127 -39 68 52 68 51 3 -76 c2 -65 6 -78 29 -101 14 -14 30 -26 34 -26 5 0 9
-4 9 -10 0 -5 18 -37 40 -71 43 -67 47 -81 26 -98 -19 -16 -55 15 -112 95 -29
40 -53 64 -65 64 -27 0 -24 -18 15 -80 58 -93 68 -111 62 -126 -10 -25 -23
-15 -65 51 -22 36 -46 65 -53 65 -7 0 -30 -11 -51 -25 -43 -30 -48 -60 -20
-140 l16 -48 -27 -24 c-15 -13 -31 -21 -35 -18 -19 11 -354 453 -415 547 l-17
26 43 -4 c24 -3 77 -10 118 -15z m675 -61 c25 -11 145 -159 145 -178 0 -5 -9
-14 -20 -20 -26 -14 -54 0 -102 54 -37 41 -54 33 -23 -12 9 -12 22 -37 31 -57
13 -33 13 -35 -5 -35 -25 0 -141 96 -141 116 0 9 -9 27 -20 41 -27 35 -26 77
3 91 30 15 100 15 132 0z m1712 -120 c80 -87 343 -607 343 -677 0 -49 -30 -17
-90 94 -24 44 -77 136 -119 205 -79 133 -152 280 -169 344 -17 59 -1 73 35 34z
m166 -115 c156 -237 279 -465 260 -484 -14 -14 -48 41 -143 232 -46 90 -106
203 -136 251 -64 106 -76 128 -70 128 3 0 43 -57 89 -127z m-1426 37 c121
-148 311 -428 328 -485 11 -35 -87 77 -171 196 -116 162 -234 340 -234 350 0
23 24 3 77 -61z m-104 -9 c59 -54 298 -394 352 -501 27 -54 26 -70 -5 -70 -46
0 -146 123 -324 400 -58 90 -106 172 -106 181 0 36 39 31 83 -10z m1286 -25
c64 -93 345 -642 336 -656 -13 -20 -36 -9 -66 33 -35 48 -329 631 -329 653 0
28 30 13 59 -30z m-1216 -318 c105 -153 161 -254 151 -270 -20 -32 -82 35
-245 262 -172 239 -196 291 -146 309 19 7 28 0 78 -68 31 -42 104 -146 162
-233z m1128 225 c86 -138 280 -544 302 -634 4 -17 2 -31 -7 -38 -10 -9 -28 17
-89 131 -75 142 -258 523 -271 565 -8 24 -1 43 14 43 4 0 27 -30 51 -67z
m-5542 -268 c1 -251 -9 -335 -26 -219 -11 78 -10 474 1 499 8 19 9 19 16 -5 5
-14 8 -137 9 -275z m4183 151 c100 -133 225 -320 257 -384 20 -39 20 -43 4
-49 -23 -9 -65 42 -217 263 -151 220 -182 274 -173 298 10 26 25 12 129 -128z
m1283 -16 c69 -127 273 -533 286 -569 l9 -26 -20 23 c-41 49 -313 572 -347
667 -22 64 6 26 72 -95z m-1426 31 c136 -179 340 -509 324 -525 -14 -14 -41
-4 -70 27 -47 50 -264 391 -322 506 -29 57 -29 67 1 70 4 1 34 -34 67 -78z
m-4132 -299 c4 -268 3 -320 -9 -336 -22 -28 -36 -13 -43 47 -7 55 11 561 22
611 15 73 25 -25 30 -322z m5432 313 c32 -42 352 -693 456 -929 145 -329 171
-422 126 -446 -39 -20 -47 -11 -85 93 -72 193 -184 442 -319 707 -161 315
-236 477 -244 525 -4 26 -1 41 12 55 23 26 29 25 54 -5z m-1406 -47 c59 -74
327 -519 327 -542 -2 -48 -380 522 -380 572 0 23 19 12 53 -30z m-14 -152
c102 -154 251 -396 251 -410 0 -11 -46 -6 -62 7 -9 6 -51 73 -94 147 -42 74
-106 180 -142 235 -36 55 -71 114 -80 132 -15 32 -10 69 8 58 5 -3 59 -80 119
-169z m1291 97 c44 -57 333 -653 316 -653 -8 0 -61 89 -169 281 -186 331 -216
399 -178 399 5 0 19 -12 31 -27z m-5414 -250 c-3 -131 -10 -256 -14 -278 l-9
-40 -8 40 c-5 22 -9 121 -9 220 0 143 3 192 17 238 10 31 20 57 24 57 3 0 3
-107 -1 -237z m-906 123 c0 -61 -86 -489 -121 -603 -21 -67 -39 -82 -39 -33 0
81 94 561 123 633 20 46 37 48 37 3z m-135 -168 c-40 -218 -91 -449 -108 -488
l-15 -35 -1 38 c-2 61 92 509 131 627 23 68 20 1 -7 -142z m6283 130 c73 -108
314 -568 298 -568 -2 0 -21 30 -42 68 -54 98 -127 202 -141 202 -21 0 -15 -27
23 -108 82 -174 103 -222 99 -222 -2 0 -36 53 -76 118 -40 64 -118 185 -172
267 -118 178 -135 212 -114 232 12 12 20 6 58 -46 69 -94 84 -79 29 28 -40 79
-11 100 38 29z m-5354 -44 c3 -9 5 -86 5 -172 -1 -86 -4 -142 -8 -123 -11 60
-31 50 -32 -16 0 -32 -4 -67 -8 -78 -15 -36 -24 69 -19 216 4 106 9 144 22
164 19 29 31 32 40 9z m4214 -186 c39 -63 78 -121 87 -128 17 -14 21 -80 5
-80 -24 0 -220 329 -220 368 1 28 49 -32 128 -160z m981 89 c107 -141 357
-559 346 -576 -17 -29 -64 12 -129 113 -37 59 -63 74 -52 30 4 -16 25 -66 46
-111 32 -68 35 -83 23 -87 -25 -10 -70 48 -230 295 -185 288 -198 311 -190
332 10 26 61 21 95 -8 27 -23 52 -32 52 -20 0 2 -9 19 -20 37 -11 18 -20 41
-20 51 0 28 34 5 79 -56z m1315 1 c47 -82 187 -444 186 -481 -1 -24 -202 423
-225 501 -11 37 12 25 39 -20z m0 -240 c51 -106 106 -224 121 -261 l28 -68
-19 -26 c-11 -14 -24 -25 -29 -24 -19 5 -198 456 -210 529 -13 82 15 42 109
-150z m-1504 85 c80 -122 271 -435 300 -492 12 -24 18 -46 15 -49 -12 -12 -38
23 -344 471 -85 124 -100 167 -58 167 18 0 37 -21 87 -97z m-163 15 c36 -39
309 -469 349 -550 30 -60 36 -80 26 -90 -17 -17 -44 11 -105 112 -28 47 -102
165 -165 263 -109 170 -151 247 -152 275 0 19 25 14 47 -10z m1574 -190 c113
-257 137 -341 103 -368 -12 -11 -17 -11 -28 1 -19 19 -184 420 -196 475 -7 32
-7 51 1 66 12 22 12 22 35 -8 13 -16 51 -91 85 -166z m-1630 80 c82 -117 329
-538 329 -561 0 -4 -6 -7 -14 -7 -22 0 -100 105 -259 346 -176 269 -172 261
-156 280 24 29 48 15 100 -58z m1434 -6 c53 -80 215 -465 215 -510 0 -24 -37
-59 -49 -46 -21 22 -202 498 -208 544 -7 61 6 65 42 12z m-1666 -49 c15 -16
84 -121 153 -234 209 -341 239 -399 206 -399 -17 0 -81 71 -113 126 -15 27
-78 128 -140 224 -116 181 -165 268 -165 295 0 24 29 18 59 -12z m1602 -102
c17 -42 56 -132 86 -201 65 -147 93 -224 93 -257 0 -61 -40 10 -99 179 -16 48
-55 148 -86 222 -55 136 -70 192 -40 152 8 -10 28 -53 46 -95z m-1712 -71 c83
-146 291 -547 291 -559 0 -15 -71 -14 -104 1 -41 18 -60 56 -61 118 0 45 -9
73 -52 160 -61 123 -123 230 -135 230 -16 0 -8 -41 18 -91 14 -28 21 -48 16
-45 -12 7 -80 121 -121 204 l-32 64 30 -7 c24 -5 32 -3 36 9 16 52 14 51 41
25 14 -13 47 -62 73 -109z m146 -101 c117 -196 233 -415 223 -424 -10 -10 -58
67 -163 260 -53 99 -121 221 -150 270 -28 50 -55 99 -59 110 -15 43 47 -46
149 -216z m-283 3 c58 -96 235 -457 244 -495 6 -25 4 -28 -12 -25 -12 2 -42
50 -91 147 -85 170 -165 311 -175 311 -21 0 -1 -56 77 -218 47 -98 85 -181 85
-186 0 -16 -50 36 -85 90 -38 57 -95 243 -95 309 0 23 -13 72 -30 110 -16 39
-30 77 -30 84 0 27 65 -47 112 -127z m-4796 -49 c-4 -93 -11 -288 -16 -436 -5
-147 -13 -274 -18 -283 -8 -14 -10 -13 -23 2 -11 14 -14 74 -13 333 1 385 19
551 62 551 13 0 14 -20 8 -167z m6333 121 c25 -32 132 -240 161 -313 l20 -53
-37 31 c-45 37 -103 109 -103 127 0 8 -9 19 -20 26 -25 15 -62 78 -80 131 -10
33 -10 41 6 58 22 25 29 24 53 -7z m-6469 -326 c-25 -346 -30 -397 -41 -404
-25 -15 20 648 49 731 15 43 13 -50 -8 -327z m217 -133 c0 -265 -3 -402 -8
-370 -12 72 -23 698 -14 780 16 136 23 17 22 -410z m-461 43 c-20 -183 -40
-346 -44 -363 l-9 -30 -7 43 c-16 87 38 584 77 717 l12 40 3 -37 c2 -20 -13
-187 -32 -370z m149 30 c-15 -195 -32 -345 -40 -364 -13 -31 -49 -53 -63 -39
-13 13 8 481 30 645 10 78 26 143 27 113 1 -19 36 -16 52 4 13 15 14 15 17 -5
2 -12 -9 -171 -23 -354z m-218 290 c-3 -35 -15 -142 -26 -238 -12 -96 -24
-238 -28 -315 -3 -77 -10 -151 -15 -164 -7 -20 -11 -21 -24 -10 -24 20 -14
266 21 557 29 231 29 232 53 232 24 0 25 -1 19 -62z m-277 -6 c0 -99 -89 -734
-106 -751 -2 -2 -7 4 -10 14 -14 35 59 669 87 752 15 47 29 41 29 -15z m155
-24 c-21 -222 -76 -678 -84 -701 -19 -49 -24 -28 -17 63 10 132 78 642 92 693
11 39 16 13 9 -55z m6663 -43 c39 -44 107 -168 117 -215 7 -31 -11 -57 -48
-66 -26 -6 -29 -3 -62 68 -45 97 -88 227 -81 244 10 25 34 15 74 -31z m1113
-111 c9 -54 37 -177 63 -272 47 -174 58 -255 24 -182 -30 63 -148 464 -148
501 0 36 16 62 34 56 6 -2 18 -48 27 -103z m-90 -79 c14 -38 29 -83 33 -100
l6 -30 -15 28 c-17 29 -42 36 -51 14 -3 -8 13 -74 36 -148 46 -152 67 -257 56
-284 -13 -34 -24 -2 -41 115 -16 108 -28 161 -85 367 -25 89 -22 116 12 111
17 -2 28 -19 49 -73z m-1333 8 c61 -79 142 -240 142 -283 0 -35 -30 -37 -57
-4 -50 63 -161 303 -146 318 14 14 33 4 61 -31z m785 -165 l47 -36 -147 -109
c-209 -155 -199 -149 -214 -122 -9 18 -89 246 -89 256 0 2 14 3 30 3 28 0 70
29 70 49 0 5 25 34 56 65 l55 57 72 -64 c40 -35 93 -80 120 -99z m467 -152
c59 -266 61 -278 44 -297 -10 -11 -21 -16 -26 -11 -17 17 -128 489 -128 544 0
37 29 77 41 56 4 -8 35 -139 69 -292z m-1542 131 c43 -68 112 -201 112 -216 0
-20 -42 3 -80 46 -79 85 -129 233 -79 233 4 0 25 -28 47 -63z m1265 -99 c36
-34 49 -56 64 -108 11 -36 38 -96 61 -134 23 -38 51 -97 63 -133 20 -62 21
-65 3 -79 -53 -41 -311 -228 -392 -284 -76 -53 -95 -62 -102 -50 -10 15 -18
39 -65 193 -17 54 -33 87 -41 87 -19 0 -18 -10 16 -135 48 -179 41 -205 -82
-297 -135 -102 -593 -398 -615 -398 -14 0 -38 60 -63 155 -38 145 -61 205 -77
205 -17 0 -18 8 38 -230 30 -130 36 -167 26 -177 -26 -25 -236 -148 -419 -244
-285 -150 -346 -189 -292 -189 9 0 149 68 312 152 452 231 434 223 446 193 8
-23 26 -18 26 8 0 12 8 34 18 49 14 23 716 498 735 498 3 0 16 -27 28 -60 12
-33 26 -60 31 -60 5 0 6 29 2 70 -8 89 -2 99 121 190 143 106 381 270 391 270
11 0 40 -70 53 -130 15 -64 13 -178 -4 -299 -16 -112 -14 -133 22 -200 20 -39
22 -47 10 -65 -32 -49 -332 -288 -439 -350 l-48 -28 -10 27 c-11 30 -35 163
-47 264 -5 36 -13 66 -20 68 -10 4 -11 -7 -8 -39 6 -51 25 -362 22 -363 -1 -1
-47 -31 -102 -67 -177 -116 -582 -347 -635 -363 -13 -4 -46 -23 -73 -41 -79
-55 -839 -431 -924 -458 -19 -6 -25 -2 -35 21 -7 15 -14 30 -16 33 -6 8 -22
-24 -22 -46 0 -26 -32 -55 -95 -87 -68 -34 -367 -152 -434 -171 l-53 -16 5 53
c4 28 9 138 13 242 7 215 14 261 49 313 14 20 25 47 25 59 0 30 38 54 169 108
134 55 159 55 184 3 26 -52 37 -47 30 12 -4 32 -1 55 6 64 7 8 50 35 96 62 47
26 85 51 85 55 0 17 -42 8 -101 -22 -33 -16 -70 -29 -81 -27 -33 5 -54 42
-122 222 -35 92 -69 173 -75 179 -30 30 -19 -21 44 -207 37 -112 66 -210 62
-218 -12 -32 -221 -128 -238 -110 -4 4 -14 42 -23 85 -19 94 -36 129 -90 185
-57 60 -73 65 -141 41 -56 -19 -56 -19 -141 1 -133 31 -171 28 -287 -26 -117
-55 -167 -63 -217 -36 -57 31 -50 46 37 77 43 16 236 93 428 173 470 194 495
202 495 178 0 -9 7 -16 16 -16 10 0 14 6 10 15 -7 19 35 51 176 131 185 105
868 446 883 441 7 -3 26 -37 41 -76 40 -99 57 -93 33 12 -18 78 -18 83 -1 106
9 13 55 46 102 74 47 28 184 112 305 188 121 75 244 150 273 165 52 28 53 29
67 10 8 -11 24 -45 35 -75 25 -71 35 -87 46 -81 12 7 7 44 -17 117 -34 103
-39 97 181 248 107 74 200 134 206 135 6 0 32 -19 57 -42z m-7404 -750 c1
-233 -9 -321 -23 -205 -8 73 -8 544 2 603 6 45 7 41 13 -51 4 -55 7 -211 8
-347z m7881 365 c34 -109 61 -287 67 -444 4 -105 3 -148 -6 -153 -7 -5 -11 5
-11 31 0 38 -35 253 -65 391 -26 128 -32 242 -11 242 3 0 15 -30 26 -67z
m-8115 -323 c40 -137 77 -299 70 -310 -10 -17 -91 -12 -106 6 -10 12 -14 85
-16 317 l-2 302 14 -115 c8 -63 26 -153 40 -200z m8024 185 c29 -116 60 -314
67 -430 7 -131 -7 -109 -41 65 -15 74 -36 157 -47 185 -21 54 -36 212 -24 261
10 38 18 22 45 -81z m-7894 -590 c22 -21 25 -33 25 -91 0 -68 16 -104 45 -104
7 0 43 -9 79 -21 58 -17 69 -25 83 -55 18 -37 30 -41 59 -19 10 8 22 15 25 15
3 0 19 -20 37 -45 l32 -45 67 0 c49 -1 84 -8 123 -25 51 -22 57 -27 79 -82 13
-32 24 -78 25 -103 1 -44 0 -46 -44 -68 -25 -12 -46 -26 -48 -31 -2 -5 23 -11
54 -13 32 -3 60 -11 65 -19 5 -8 18 -45 30 -84 11 -38 47 -153 80 -255 33
-102 62 -208 66 -236 l6 -52 -128 -7 c-70 -4 -202 -6 -293 -3 -205 5 -226 13
-271 97 -55 103 -199 486 -188 498 4 3 82 9 174 14 246 12 313 21 313 40 0 5
-103 9 -253 9 l-254 0 -26 88 c-48 157 -130 562 -120 588 6 17 50 32 96 33 28
1 45 -6 62 -24z m7869 -238 c-5 -50 -1 -108 11 -180 10 -63 15 -124 11 -148
-9 -54 -73 -254 -98 -302 -21 -42 -120 -111 -328 -231 l-115 -65 -7 47 c-3 26
-7 169 -7 317 l0 270 57 33 c31 18 149 100 262 182 113 82 208 150 212 150 4
0 5 -33 2 -73z m-5587 -59 c5 -7 17 -42 27 -78 24 -91 98 -273 114 -278 22 -7
13 54 -23 167 -20 60 -36 126 -38 148 -2 36 0 38 28 38 38 0 61 -34 116 -175
57 -144 74 -148 44 -10 -20 92 -20 93 13 76 15 -8 39 -28 55 -45 23 -26 34
-31 75 -31 l48 0 67 -199 c37 -109 67 -209 67 -222 -1 -23 -1 -23 -30 9 -36
39 -53 41 -44 7 13 -54 11 -60 -21 -57 -50 6 -94 -8 -130 -39 -19 -17 -42 -29
-52 -27 -11 2 -33 34 -58 86 -21 45 -45 82 -52 82 -17 0 -17 -8 7 -102 16 -62
18 -83 9 -94 -18 -21 -45 -17 -67 11 -21 26 -48 35 -39 13 18 -50 18 -56 -7
-62 -38 -9 -53 1 -92 65 -19 32 -40 59 -45 59 -12 0 -11 -6 6 -64 8 -27 15
-60 15 -74 0 -23 -2 -24 -44 -18 -34 5 -47 3 -61 -10 -12 -13 -22 -15 -34 -8
-23 14 -80 133 -160 334 -87 222 -133 397 -115 443 8 21 24 12 24 -14 0 -23
13 -25 30 -4 17 21 83 19 109 -2 13 -11 35 -58 55 -119 37 -112 52 -144 66
-144 16 0 12 31 -16 121 -43 141 -34 210 30 222 47 9 114 6 123 -5z m-482
-138 c10 -50 161 -461 235 -639 34 -84 29 -107 -18 -80 -22 12 -35 38 -69 134
-93 263 -132 349 -148 333 -8 -7 25 -115 99 -325 54 -154 56 -172 22 -166 -14
3 -38 -3 -55 -13 -29 -17 -31 -17 -52 2 -29 26 -59 96 -129 301 -58 169 -84
233 -97 233 -14 0 9 -93 77 -310 54 -171 70 -234 62 -242 -15 -15 -26 13 -102
253 -61 195 -101 363 -99 416 1 16 3 21 6 11 2 -10 13 -18 24 -18 17 0 19 8
19 70 0 100 13 92 62 -37 11 -30 26 -53 34 -53 19 0 18 20 -7 102 -26 84 -22
89 65 86 l59 -3 12 -55z m1493 -15 c52 -22 79 -51 114 -120 37 -72 69 -161 61
-169 -15 -15 -44 -3 -67 27 -13 17 -43 75 -65 127 -23 52 -46 99 -51 104 -26
26 -20 -17 19 -133 45 -135 48 -166 16 -166 -25 0 -53 49 -104 180 -52 135
-55 152 -34 158 37 10 75 7 111 -8z m-2468 -160 c-15 -18 -5 -35 23 -35 22 0
35 -7 113 -62 24 -16 69 -34 114 -43 41 -9 99 -24 128 -35 66 -25 84 -25 165
0 94 29 101 38 93 127 -7 77 4 98 23 41 13 -40 41 -159 41 -173 -1 -5 -5 -2
-11 8 -10 17 -38 24 -40 10 0 -5 -2 -78 -4 -163 -3 -153 -28 -302 -56 -336
-15 -18 -85 -31 -234 -43 -71 -6 -149 -14 -171 -17 l-41 -5 -62 172 c-93 258
-125 373 -126 455 -1 56 -6 77 -23 98 -21 27 -34 62 -46 121 -6 28 -1 25 60
-38 54 -55 64 -70 54 -82z m2300 105 c11 -22 41 -97 66 -167 39 -112 43 -129
30 -142 -13 -12 -18 -12 -31 -1 -38 32 -125 246 -125 308 0 56 32 58 60 2z
m-253 15 c34 -24 153 -365 139 -400 -3 -9 -18 -15 -36 -15 -27 0 -34 6 -50 43
-10 23 -37 113 -60 199 -49 180 -47 211 7 173z m192 -164 c69 -220 65 -201 43
-201 -14 0 -30 19 -55 68 -41 78 -97 233 -97 267 0 29 29 48 47 33 7 -6 35
-81 62 -167z m4214 27 c4 -18 9 -157 12 -308 l7 -275 -244 -137 c-275 -154
-439 -238 -472 -242 -13 -1 -33 -12 -46 -23 -12 -12 -98 -61 -191 -108 -157
-81 -192 -105 -153 -105 21 0 124 42 250 100 l102 48 7 -174 c4 -96 10 -174
15 -174 7 0 20 200 20 311 l0 57 236 132 c456 255 486 268 470 207 -8 -32 -36
-276 -36 -314 0 -47 16 -41 29 10 14 56 38 219 46 319 l7 78 82 46 c44 26 142
86 216 134 126 82 192 120 205 120 27 0 -43 -173 -183 -455 -93 -186 -97 -192
-186 -280 -82 -81 -176 -155 -198 -155 -4 0 -8 19 -8 43 0 39 -14 78 -23 67
-2 -3 -12 -36 -21 -73 -24 -89 -46 -109 -249 -225 -205 -117 -356 -191 -404
-199 -21 -4 -42 -12 -48 -19 -41 -51 -743 -380 -764 -358 -10 10 -51 200 -51
233 0 12 -5 21 -11 21 -12 0 -8 -95 7 -235 l6 -50 -195 -78 c-188 -74 -593
-213 -743 -255 l-72 -20 -18 40 c-21 47 -51 88 -65 88 -16 0 -10 -34 11 -60
55 -70 8 -102 -264 -184 -61 -19 -126 -37 -144 -41 l-34 -7 46 56 c25 31 47
60 47 64 1 4 3 18 4 31 1 13 14 33 29 44 35 25 68 84 106 187 17 47 38 96 46
108 14 22 17 22 33 8 10 -9 27 -36 40 -61 12 -25 27 -45 32 -45 12 0 12 2 -15
107 -22 85 -22 93 -7 107 9 8 81 38 161 66 160 58 300 118 300 131 0 26 -7 24
-312 -87 -37 -13 -82 -24 -101 -24 -32 0 -33 1 -45 65 -17 89 -17 87 33 149
58 70 149 145 187 153 42 8 57 38 78 160 14 81 24 112 39 124 24 20 498 223
556 238 36 10 42 9 58 -10 10 -12 25 -48 35 -80 9 -33 23 -59 30 -59 8 0 11 8
8 23 -3 12 -10 49 -17 82 l-11 59 31 27 c73 61 896 469 946 469 7 0 15 7 19
15 7 20 74 62 293 183 100 56 224 127 275 158 86 52 144 83 159 84 4 0 9 -15
12 -32z m-2726 -104 c48 -90 116 -285 111 -317 -3 -18 -9 -12 -35 32 -36 61
-129 290 -139 341 -12 56 17 31 63 -56z m-516 -11 c43 -57 53 -62 67 -36 5 9
16 14 23 11 14 -6 143 -373 154 -438 l6 -35 -29 33 c-34 38 -47 40 -56 10 -11
-44 -6 -85 14 -103 39 -36 215 -508 208 -558 -12 -79 -71 38 -227 453 -95 250
-178 452 -196 477 -7 10 -16 15 -20 12 -14 -14 67 -245 233 -669 128 -329 120
-296 80 -320 -49 -30 -91 -26 -121 10 -32 38 -50 40 -37 4 17 -42 12 -63 -19
-78 -27 -14 -30 -14 -54 12 -15 15 -33 46 -41 70 -8 23 -50 120 -92 215 -74
167 -107 248 -102 252 10 8 101 24 108 20 5 -3 12 -20 15 -38 13 -56 37 -107
51 -107 19 0 18 20 -7 101 -17 56 -19 72 -9 84 22 26 2 29 -81 11 -63 -14 -84
-15 -95 -5 -33 27 -242 525 -226 541 4 4 31 11 59 14 l50 6 31 -73 c16 -41 46
-114 67 -163 47 -116 73 -166 85 -166 17 0 11 25 -45 193 -30 90 -58 184 -61
210 -6 44 -5 46 21 53 19 5 35 1 56 -15 l29 -22 0 41 c0 44 16 54 26 15 9 -35
34 -32 34 3 0 68 37 59 101 -25z m618 32 c25 -37 111 -273 111 -306 0 -35 -19
-20 -49 39 -32 65 -111 274 -111 297 0 22 22 9 49 -30z m143 -46 c43 -86 78
-183 78 -216 0 -34 -25 -28 -49 10 -24 39 -91 235 -91 267 0 39 24 16 62 -61z
m-420 -10 c31 -64 131 -356 126 -370 -9 -26 -42 31 -103 176 -68 160 -94 262
-64 253 8 -2 26 -29 41 -59z m-104 -26 c6 -16 33 -87 60 -159 28 -72 57 -154
66 -183 l15 -51 -23 0 c-28 0 -60 57 -129 225 -58 142 -64 170 -40 184 29 17
40 13 51 -16z m-729 -121 c49 -97 140 -314 171 -405 17 -50 20 -71 12 -79 -33
-33 -134 158 -214 405 -28 88 -36 157 -18 157 5 0 27 -35 49 -78z m-74 -127
c72 -149 142 -326 147 -370 2 -21 -2 -30 -14 -33 -26 -5 -63 41 -88 111 -13
34 -49 125 -81 202 -68 166 -84 218 -75 241 12 31 45 -14 111 -151z m-166 78
c112 -223 209 -513 171 -513 -45 0 -248 498 -226 555 10 27 25 16 55 -42z
m-131 -36 c70 -116 202 -437 202 -493 0 -26 -17 -31 -43 -11 -30 23 -107 196
-173 391 -32 95 -43 166 -26 166 4 0 22 -24 40 -53z m-3677 -87 c46 -174 240
-667 270 -686 21 -13 21 7 1 68 -90 263 150 -306 688 -1633 155 -382 352 -865
437 -1074 166 -404 275 -686 269 -692 -2 -2 -52 110 -111 249 -119 282 -239
560 -281 655 -30 69 -50 83 -41 29 3 -19 82 -227 175 -463 94 -235 173 -439
177 -453 7 -25 7 -25 -24 5 -22 22 -60 99 -134 275 -199 470 -247 570 -247
517 0 -10 34 -104 76 -210 131 -332 175 -450 194 -522 l17 -70 89 -47 c49 -26
152 -74 229 -107 191 -81 215 -92 185 -85 -105 24 -540 225 -576 266 -19 21
-19 21 9 14 23 -5 27 -3 27 14 0 23 -32 34 -104 35 -39 0 -51 -4 -60 -20 -6
-11 -43 -53 -82 -94 l-71 -74 -22 58 c-12 32 -118 385 -236 785 -118 400 -222
746 -231 769 -19 47 -34 53 -34 14 0 -14 81 -303 179 -642 202 -692 281 -970
281 -988 0 -7 -9 -13 -20 -13 -16 0 -20 7 -20 38 0 51 -21 135 -90 362 -32
107 -93 314 -135 458 -81 281 -117 386 -140 412 -9 10 -15 37 -15 72 0 87 -61
298 -97 333 -11 12 -14 27 -8 60 5 36 3 46 -9 51 -10 4 -16 19 -16 41 0 28 -3
34 -16 29 -14 -5 -15 1 -9 44 6 42 4 50 -9 50 -9 0 -16 -6 -16 -12 0 -8 -7 -5
-15 6 -19 25 -19 36 -1 36 18 0 28 27 20 52 -8 27 -28 17 -35 -18 -5 -28 -5
-28 -13 11 -4 22 -10 49 -13 60 -5 17 -2 16 15 -5 l21 -25 0 25 c1 27 -32 161
-43 179 -4 6 -13 11 -21 11 -11 0 -13 11 -8 50 6 50 -2 61 -25 38 -13 -13 -14
-12 -36 77 -9 33 -24 87 -36 119 -21 63 -26 92 -9 64 16 -28 29 -21 29 15 0
36 -27 81 -36 60 -9 -20 -24 -15 -24 7 0 11 7 20 15 20 8 0 15 5 15 11 0 6
-23 99 -52 206 -42 156 -49 196 -39 203 17 10 -4 99 -134 565 -51 182 -101
366 -111 409 l-18 78 24 20 c40 33 51 21 81 -92z m3581 35 c32 -58 140 -345
162 -431 13 -51 13 -61 1 -73 -27 -27 -69 37 -133 202 -108 277 -126 340 -99
350 26 12 43 0 69 -48z m-58 -203 c84 -213 108 -286 99 -308 -8 -21 -52 -42
-115 -55 -29 -6 -63 -17 -75 -25 -33 -21 -48 -17 -79 19 -51 59 -214 426 -214
480 0 42 63 64 90 32 19 -23 40 -18 40 10 0 27 30 45 73 45 26 0 35 -13 77
-113 30 -72 42 -88 54 -69 2 4 -9 48 -25 97 -32 101 -39 149 -13 102 8 -15 48
-112 88 -215z m1716 49 c51 -103 121 -354 108 -392 -8 -24 -168 419 -168 464
0 21 33 -20 60 -72z m-2169 23 c58 -85 194 -392 205 -466 6 -34 4 -38 -21 -44
-33 -8 -36 -6 -81 86 -81 164 -182 439 -169 460 13 21 35 8 66 -36z m-75 -118
c70 -165 144 -370 144 -397 0 -16 -5 -20 -27 -17 -24 3 -33 18 -110 208 -102
249 -123 317 -102 331 8 5 20 8 28 6 7 -1 37 -60 67 -131z m-176 67 c61 -77
200 -419 200 -491 0 -50 -49 -58 -77 -12 -24 41 -40 38 -36 -7 2 -32 -6 -20
-56 80 -51 101 -181 411 -181 430 0 15 27 -6 44 -33 23 -40 32 -38 41 7 4 21
9 41 11 45 10 16 33 7 54 -19z m2119 -17 c40 -43 212 -458 214 -520 2 -34 -1
-41 -19 -44 -11 -2 -28 6 -37 16 -29 32 -207 503 -207 548 0 31 20 31 49 0z
m-2331 -29 c36 -38 198 -416 217 -504 6 -29 4 -33 -14 -33 -28 0 -52 38 -110
177 -62 149 -151 372 -151 378 0 14 39 2 58 -18z m-133 -7 c29 -11 77 -104
178 -350 79 -191 78 -180 16 -209 l-51 -25 -19 25 c-62 80 -229 457 -229 518
0 26 5 32 33 40 43 12 42 12 72 1z m2347 -12 c20 -30 208 -506 208 -526 0 -24
-28 6 -56 59 -39 79 -184 459 -184 485 0 12 20 1 32 -18z m-5153 -17 c26 -37
27 -57 1 -64 -11 -3 -20 -10 -20 -16 0 -7 29 -11 80 -11 75 0 81 -2 97 -26 9
-15 17 -47 17 -71 1 -45 0 -46 -59 -82 -47 -28 -65 -47 -86 -87 -14 -29 -29
-62 -33 -75 l-7 -24 -14 26 c-34 62 -59 183 -59 289 -1 156 32 213 83 141z
m2696 -176 c36 -88 124 -279 196 -424 71 -145 128 -266 125 -268 -7 -7 -72 79
-104 137 -79 141 -280 615 -297 700 -13 65 12 19 80 -145z m-279 1 c61 -146
116 -297 110 -304 -21 -21 -91 110 -147 277 -40 121 -52 194 -24 157 8 -10 35
-69 61 -130z m62 72 c42 -82 191 -442 186 -447 -12 -13 -63 57 -104 144 -67
141 -148 387 -122 371 5 -3 23 -33 40 -68z m150 -133 c61 -144 122 -307 122
-328 -1 -23 -43 55 -95 176 -59 136 -125 320 -125 345 1 24 29 -31 98 -193z
m-396 126 c11 -66 55 -197 90 -264 43 -87 118 -158 198 -188 39 -15 65 -31 65
-39 0 -19 -61 -50 -97 -50 -16 0 -28 -5 -28 -13 0 -10 21 -13 78 -12 51 0 89
-5 106 -15 24 -12 29 -12 37 0 8 12 12 12 16 2 24 -60 75 -111 173 -174 142
-92 158 -98 272 -107 88 -7 102 -11 126 -34 35 -33 46 -34 40 -3 -5 24 -4 23
26 -7 l31 -32 -25 -9 c-60 -21 -68 -58 -17 -79 44 -19 134 -119 161 -181 25
-56 50 -84 61 -67 8 14 -5 37 -75 141 -31 47 -60 90 -64 97 -7 14 41 43 72 43
36 0 114 -103 214 -285 87 -159 116 -235 89 -235 -14 0 -109 78 -124 100 -10
18 -37 28 -37 15 0 -3 14 -24 30 -47 17 -22 30 -51 30 -64 0 -23 -23 -34 -132
-60 -37 -8 -37 -34 0 -34 15 0 54 7 85 15 32 8 67 15 78 15 12 0 50 -28 86
-62 83 -79 223 -239 223 -254 0 -25 -145 -52 -320 -60 -154 -8 -216 3 -322 57
-67 34 -210 129 -268 178 l-35 30 33 11 c45 17 40 28 -15 35 -81 10 -89 14
-149 59 -81 61 -391 362 -409 397 -14 26 -14 29 4 39 11 5 70 19 131 29 106
18 129 25 119 35 -3 3 -66 0 -142 -5 -100 -8 -147 -7 -172 1 -36 12 -115 96
-115 123 0 15 -66 77 -82 77 -17 0 -6 -20 36 -70 56 -65 96 -141 79 -147 -26
-9 -12 -31 25 -37 28 -4 44 -15 64 -44 15 -20 116 -129 225 -242 l198 -205
-55 -3 c-100 -6 -209 15 -285 53 -113 57 -597 424 -569 431 5 2 28 8 52 14 52
13 55 30 5 30 -80 0 -112 18 -216 118 -140 136 -287 300 -287 321 0 28 35 31
310 31 l248 0 22 -37 c65 -113 126 -203 137 -203 20 0 17 9 -48 124 -38 69
-56 112 -49 116 6 3 54 14 108 24 119 22 132 25 132 36 0 4 -57 10 -127 12
-88 2 -136 8 -155 18 -29 16 -81 83 -92 118 -4 12 -45 99 -90 194 -106 221
-104 215 -69 229 49 18 236 48 293 46 l55 -2 7 -44z m-548 -11 l111 0 97 -193
c53 -105 108 -208 121 -228 27 -40 50 -126 36 -135 -17 -10 -178 -24 -291 -24
-192 0 -292 33 -351 116 -93 130 -277 435 -277 457 0 12 65 15 249 11 107 -2
244 -4 305 -4z m2931 -44 c20 -31 117 -255 166 -384 39 -103 47 -142 30 -142
-20 0 -63 71 -135 221 -90 188 -131 293 -123 313 9 24 44 19 62 -8z m-132 -38
c14 -18 41 -64 60 -103 42 -84 157 -371 157 -391 0 -20 -34 -17 -53 4 -39 43
-233 494 -221 513 11 18 33 8 57 -23z m-96 -64 c38 -69 183 -433 183 -459 0
-49 -30 -12 -97 118 -82 161 -173 369 -166 380 3 5 17 7 31 5 19 -2 33 -14 49
-44z m-128 -40 c38 -67 181 -370 201 -426 8 -21 11 -40 7 -44 -14 -14 -58 8
-74 39 -49 91 -147 309 -169 373 -44 132 -25 164 35 58z m-122 -31 c16 -27 43
-79 60 -118 17 -38 59 -132 93 -208 56 -124 61 -140 48 -154 -14 -13 -18 -11
-41 19 -34 44 -180 345 -207 426 -11 35 -18 67 -15 73 13 20 35 7 62 -38z
m-139 -17 c15 -8 37 -32 50 -54 28 -50 28 -63 1 -28 -11 14 -25 26 -30 26 -22
0 -4 -50 80 -217 49 -98 92 -187 95 -199 8 -25 -7 -39 -51 -47 -55 -11 -84 25
-178 218 -118 239 -136 298 -97 308 37 10 104 6 130 -7z m-209 -61 c33 -38 78
-122 141 -264 21 -47 52 -116 69 -153 l30 -68 -25 0 c-19 0 -33 14 -68 68 -76
117 -222 424 -211 442 12 19 33 10 64 -25z m-115 -33 c58 -92 226 -449 226
-480 0 -6 -7 -13 -16 -16 -11 -4 -27 5 -49 28 -66 70 -245 404 -245 457 0 27
21 48 47 49 7 0 24 -17 37 -38z m-109 -128 c79 -129 189 -335 200 -371 5 -20
3 -23 -20 -23 -34 0 -83 75 -187 289 -124 256 -120 317 7 105z m-51 -142 c51
-103 109 -228 129 -278 41 -104 142 -324 217 -475 54 -106 57 -137 10 -80 -25
30 -226 441 -244 499 -4 12 -17 33 -30 46 -50 55 -256 447 -256 489 0 15 8 28
23 34 27 12 26 14 151 -235z m-216 141 c48 -91 152 -334 152 -355 0 -17 -5
-19 -27 -13 -77 19 -132 80 -213 238 -31 62 -50 111 -50 132 0 66 27 40 125
-123 65 -107 95 -142 95 -111 0 7 -26 65 -59 129 -32 63 -62 125 -65 138 -14
42 11 22 42 -35z m-189 -32 c23 -33 143 -272 139 -276 -2 -2 -26 -7 -54 -10
-44 -6 -53 -4 -80 18 -48 41 -167 267 -150 284 9 9 87 20 109 15 9 -3 26 -16
36 -31z m2084 -49 c46 -51 117 -281 116 -376 0 -50 -2 -47 -53 99 -30 83 -65
180 -80 218 -14 37 -26 70 -26 72 0 12 28 3 43 -13z m2813 -24 c-9 -48 -79
-191 -127 -259 -24 -33 -74 -84 -118 -118 -143 -110 -384 -251 -431 -251 -11
0 -40 -15 -65 -34 -88 -67 -352 -193 -655 -312 -222 -87 -326 -144 -262 -144
46 0 355 126 647 262 282 133 253 123 267 93 12 -27 38 -34 38 -10 0 50 60
101 225 190 106 57 98 43 -40 -70 -126 -103 -198 -155 -217 -155 -8 0 -28 -15
-44 -33 -61 -69 -328 -248 -511 -342 -98 -50 -113 -54 -113 -25 0 11 -7 20
-15 20 -8 0 -15 -4 -15 -9 0 -52 -178 -148 -425 -230 -264 -87 -641 -175 -810
-188 l-79 -6 37 33 c40 35 67 78 67 106 0 10 7 26 17 36 9 10 13 21 10 24 -3
4 -61 -6 -129 -22 -153 -35 -245 -38 -285 -8 -39 28 -63 80 -63 135 0 82 50
113 331 203 226 73 265 80 290 55 22 -22 39 -17 39 11 0 29 49 50 329 145 137
46 328 113 426 150 98 36 189 65 204 63 23 -3 27 -9 35 -55 5 -29 13 -53 17
-53 5 0 9 31 9 69 0 43 5 72 13 79 13 11 547 261 666 311 40 17 79 31 87 31 8
0 35 15 61 34 85 60 555 306 585 306 6 0 8 -13 4 -32z m-2875 -59 c20 -41 99
-265 99 -283 0 -6 -26 37 -57 97 -31 59 -62 107 -70 107 -7 0 -13 -6 -13 -12
0 -7 36 -89 79 -183 44 -93 77 -173 75 -177 -13 -21 -54 -6 -81 30 -71 90
-167 278 -199 388 -16 55 -16 58 2 71 29 21 47 11 74 -41 14 -28 31 -52 39
-54 14 -5 13 5 -5 98 l-7 35 23 -20 c12 -11 30 -36 41 -56z m-246 -68 c76
-118 209 -400 202 -430 -4 -19 -50 49 -133 199 -135 245 -186 412 -69 231z
m-135 -1 c11 -16 74 -133 140 -259 65 -126 146 -274 179 -328 70 -115 83 -153
54 -153 -11 0 -29 10 -40 23 -28 29 -93 160 -93 186 0 11 -25 55 -56 98 -64
89 -240 435 -230 452 11 18 23 13 46 -19z m-82 -103 c76 -130 202 -377 202
-396 0 -27 -40 21 -93 109 -123 209 -219 421 -178 396 5 -4 36 -52 69 -109z
m-137 41 c29 -46 183 -362 209 -427 28 -71 13 -88 -33 -39 -57 60 -256 466
-241 490 12 19 46 6 65 -24z m-124 -70 c98 -156 231 -437 218 -458 -11 -18
-23 -10 -53 38 -51 80 -213 411 -219 448 -8 52 10 42 54 -28z m-156 -19 c35
-37 198 -358 229 -448 12 -35 36 -83 54 -105 74 -92 199 -324 194 -359 -6 -40
-42 -33 -81 15 -83 103 -209 332 -201 364 4 13 -4 26 -25 42 -37 27 -106 128
-195 285 -78 138 -109 205 -102 224 3 8 22 13 52 13 39 0 51 -5 75 -31z m-155
-76 c39 -58 234 -422 234 -435 0 -5 -7 -8 -16 -8 -26 0 -79 63 -116 137 -18
38 -59 113 -90 169 -61 107 -100 198 -91 208 12 12 42 -15 79 -71z m-132 0
c36 -50 234 -418 243 -453 8 -32 -12 -24 -45 18 -90 113 -272 426 -272 466 0
33 40 16 74 -31z m-2788 -325 c230 -532 434 -994 643 -1458 110 -244 199 -446
197 -447 -10 -10 -970 2153 -1003 2257 -15 50 45 -79 163 -352z m2637 315 c20
-20 71 -99 113 -177 43 -78 100 -177 126 -221 74 -124 61 -154 -26 -62 -62 64
-213 320 -271 460 -15 35 -14 37 4 37 10 0 35 -16 54 -37z m1170 -446 c26 -51
51 -114 58 -140 11 -44 10 -51 -8 -75 -11 -15 -35 -36 -53 -46 l-33 -20 -27
32 c-34 41 -144 235 -161 284 -29 84 29 54 108 -55 104 -143 140 -176 158
-146 10 15 -3 59 -18 59 -25 0 -135 209 -122 231 13 19 51 -29 98 -124z m-283
11 c17 -29 65 -122 107 -206 61 -122 74 -155 64 -165 -22 -21 -82 61 -165 222
-75 148 -88 185 -63 194 23 10 27 7 57 -45z m-346 -227 c96 -137 153 -241 133
-241 -29 0 -110 106 -215 281 -103 172 -48 145 82 -40z m-134 -51 c37 -74 70
-146 74 -160 7 -24 6 -24 -19 5 -39 46 -155 223 -176 269 -17 39 -17 42 -1 54
24 18 40 -4 122 -168z m-256 46 c48 -28 127 -128 169 -214 22 -43 22 -44 3
-58 -11 -8 -23 -14 -27 -14 -8 0 -161 160 -257 267 l-62 71 64 -12 c34 -7 84
-25 110 -40z m-959 -97 c47 -25 395 -272 390 -277 -14 -14 -383 142 -560 238
l-110 60 120 0 c104 0 126 -3 160 -21z m1792 -131 c6 -7 25 -57 43 -112 21
-59 45 -110 61 -127 15 -17 29 -37 31 -47 3 -15 16 -17 98 -15 52 1 124 4 160
7 l65 5 -45 -15 c-51 -17 -259 -30 -275 -17 -13 9 -163 223 -190 269 -10 18
-15 39 -12 48 8 19 50 21 64 4z m-704 -130 c24 -12 234 -160 306 -215 l44 -33
-39 0 c-21 0 -118 13 -214 29 -190 32 -301 67 -415 131 -80 45 -90 38 105 74
145 28 183 30 213 14z m2544 -418 c17 -136 17 -143 -5 -131 -11 6 -43 45 -72
87 -59 85 -59 94 1 126 56 30 62 24 76 -82z m-4856 -572 c196 -434 340 -779
339 -811 -1 -22 -56 95 -159 336 -104 245 -289 690 -298 717 -13 43 27 -40
118 -242z m2372 111 c-34 -4 -185 -15 -335 -23 -671 -39 -1221 -103 -1538
-180 -58 -14 -113 -26 -122 -26 -18 0 -34 18 -25 27 16 15 604 116 834 142
337 39 786 68 1068 68 135 0 165 -2 118 -8z m1107 -29 c170 -10 304 -31 246
-38 -16 -2 -127 4 -245 12 -119 9 -328 21 -465 26 -138 6 -252 13 -255 17 -7
7 499 -5 719 -17z m-392 -228 c2 -79 1 -154 -2 -168 -11 -41 -34 -29 -42 21
-8 55 0 283 11 309 17 40 30 -20 33 -162z m-1525 118 c6 0 21 10 34 22 13 12
26 18 30 14 11 -10 17 -246 8 -302 -5 -34 -10 -44 -23 -42 -20 4 -30 37 -31
101 -1 63 -18 52 -26 -18 -7 -54 -27 -96 -40 -83 -38 38 -29 285 13 331 17 19
17 19 20 -2 2 -11 8 -21 15 -21z m279 -97 c-15 -153 -21 -184 -39 -190 -15 -5
-33 58 -33 118 0 70 -12 169 -20 169 -4 0 -10 -62 -12 -137 -5 -141 -12 -177
-32 -170 -17 6 -25 70 -25 215 l-1 132 88 0 87 0 -13 -137z m-488 85 c3 -13 6
-92 6 -177 l0 -154 -57 7 c-60 7 -73 16 -73 54 0 12 -5 22 -10 22 -6 0 -15
-10 -20 -22 -11 -28 -13 148 -3 232 8 71 21 41 22 -52 1 -54 4 -68 16 -68 11
0 15 11 15 43 0 70 17 114 48 125 41 16 49 14 56 -10z m-207 -177 c-6 -126
-18 -148 -98 -174 -76 -24 -409 -103 -415 -98 -9 9 -4 330 6 355 11 29 57 37
66 11 9 -24 27 -18 46 15 21 36 53 40 62 7 3 -12 8 -66 12 -120 4 -53 10 -97
14 -97 4 0 10 42 14 93 8 104 30 162 61 162 14 0 21 -8 23 -27 2 -16 7 -28 12
-28 5 0 15 12 22 28 11 22 21 28 56 30 29 2 43 -1 44 -10 1 -7 2 -74 2 -150 1
-75 4 -140 9 -144 18 -18 28 20 33 122 3 60 8 129 11 154 l6 45 10 -35 c5 -19
7 -82 4 -139z m3037 -6 c0 -147 -16 -243 -41 -252 -8 -3 -25 -1 -39 5 -21 10
-24 18 -24 65 0 68 26 265 39 301 9 22 16 27 39 24 l27 -3 -1 -140z m-3601
-92 c0 -93 -3 -179 -8 -192 -7 -24 -8 -24 -21 -6 -17 24 -19 259 -3 335 20 95
33 43 32 -137z m3999 154 c4 -7 10 -35 14 -64 3 -29 10 -53 13 -53 4 0 12 21
17 48 7 37 14 48 31 50 30 4 39 -18 54 -121 7 -48 15 -87 20 -87 4 0 10 33 14
73 9 98 12 107 41 107 31 0 64 -33 64 -64 0 -39 18 -40 34 -1 8 19 17 35 20
35 3 0 34 -11 68 -25 35 -14 106 -40 158 -58 70 -24 96 -37 98 -51 6 -29 -207
-234 -280 -270 -31 -15 -62 -25 -68 -21 -7 4 -18 23 -26 41 -16 37 -34 43 -55
18 -10 -13 -24 -15 -64 -9 -74 9 -184 50 -215 80 -18 17 -32 23 -45 19 -17 -7
-18 1 -12 157 4 90 10 177 13 192 6 28 8 29 53 22 25 -4 49 -12 53 -18z m533
-86 c66 -26 179 -74 251 -107 l132 -59 6 -49 c13 -89 25 -359 26 -528 l0 -168
-66 -54 c-97 -80 -307 -187 -327 -167 -5 5 -12 97 -15 204 -5 126 -11 200 -19
208 -22 22 -33 -31 -48 -234 -8 -111 -17 -211 -21 -221 -15 -38 -24 11 -24
134 -1 69 -5 159 -9 200 -7 70 -6 76 16 98 29 29 129 76 143 67 6 -4 10 -76
10 -188 0 -181 4 -227 21 -227 18 0 24 62 24 262 0 113 3 204 7 202 20 -13 99
37 132 83 19 26 31 49 26 51 -5 2 -32 -9 -62 -24 -29 -14 -48 -22 -43 -17 6 5
36 30 67 56 78 65 138 157 138 211 0 29 -7 49 -21 65 -50 54 -181 122 -401
210 -60 24 -108 45 -108 48 0 7 32 -4 165 -56z m-2095 -161 c249 -13 420 -31
806 -85 490 -69 814 -144 1158 -266 l119 -43 -30 -26 c-44 -39 -325 -147 -498
-190 -180 -45 -511 -103 -725 -127 -134 -15 -267 -17 -995 -18 l-840 0 -235
33 c-395 55 -491 71 -538 92 -24 11 -54 20 -66 20 -35 0 -412 78 -448 93 -30
12 -32 16 -30 58 3 33 -5 61 -27 109 -17 36 -31 72 -31 80 0 8 -11 34 -25 58
-17 31 -20 42 -10 42 8 0 29 9 48 20 56 33 419 119 450 106 7 -2 3 -5 -9 -5
-36 -2 -84 -22 -84 -36 0 -25 20 -27 94 -10 41 9 158 22 261 29 169 13 189 16
210 36 16 15 43 25 82 30 88 11 1142 11 1363 0z m-2982 -403 c40 -27 50 -40
67 -92 6 -18 8 -16 20 13 l14 33 48 -24 c26 -14 74 -32 105 -41 32 -9 62 -24
66 -34 5 -9 13 -100 17 -202 4 -102 9 -189 12 -193 15 -24 24 25 32 169 5 87
12 167 16 177 9 22 39 22 61 0 15 -15 16 -32 10 -139 -7 -133 -21 -223 -36
-238 -15 -15 -108 8 -203 50 -165 74 -243 116 -270 144 -15 17 -37 30 -48 30
-12 0 -17 5 -14 10 9 15 -14 40 -36 40 -15 0 -19 8 -19 39 0 21 -9 106 -20
187 -11 82 -20 157 -20 167 0 15 12 11 78 -25 42 -23 96 -55 120 -71z m769
-207 c158 -54 739 -157 1098 -195 179 -19 251 -36 130 -31 -283 13 -1226 183
-1333 240 -25 14 -26 15 -5 16 13 0 62 -13 110 -30z m-179 -217 c2 -160 5
-193 17 -193 18 0 22 30 30 187 6 123 21 196 35 172 13 -20 21 -226 13 -314
-9 -94 -14 -97 -105 -69 l-58 17 0 183 c0 100 3 190 6 199 4 10 16 15 33 13
l26 -3 3 -192z m4166 111 c8 -62 8 -313 -1 -355 -7 -33 -7 -33 -14 -9 -3 14
-5 97 -2 185 4 161 -2 204 -28 178 -7 -7 -14 -78 -18 -196 -3 -102 -9 -188
-13 -192 -11 -11 -21 185 -15 282 7 102 17 129 50 143 34 13 34 13 41 -36z
m-299 -150 c8 -91 0 -272 -14 -321 l-8 -28 -12 28 c-23 59 -7 407 19 407 5 0
11 -39 15 -86z m-115 -102 c-1 -206 -15 -292 -40 -252 -20 31 -8 337 16 413
15 49 24 -11 24 -161z m-3014 142 c9 -35 -6 -355 -17 -376 -11 -20 -44 -23
-83 -8 -24 9 -26 14 -26 79 0 61 27 223 46 276 20 56 69 74 80 29z m2753 -191
c-2 -283 -17 -283 -35 0 -4 59 -10 107 -14 107 -4 0 -10 -82 -13 -182 -4 -113
-10 -184 -17 -188 -17 -10 -425 -33 -451 -25 -13 4 -32 15 -42 23 -16 14 -19
14 -27 2 -6 -8 -10 -20 -10 -27 0 -17 -23 -21 -145 -25 l-110 -3 -25 52 c-14
29 -28 53 -32 53 -5 0 -8 -19 -8 -43 0 -48 -22 -87 -50 -87 -10 0 -32 11 -48
25 -34 29 -42 31 -42 11 0 -20 -25 -37 -44 -30 -14 5 -16 25 -16 138 1 146 14
272 31 292 17 21 38 17 44 -8 3 -13 6 -70 8 -127 2 -71 7 -106 15 -109 8 -2
12 11 12 45 0 26 3 85 7 131 l6 82 73 0 c78 0 347 21 581 45 166 17 283 19
283 5 0 -15 26 -12 40 5 7 8 16 15 21 15 5 0 9 -80 8 -177z m-2142 -12 c-11
-205 -36 -306 -69 -273 -24 24 -10 262 23 385 9 34 12 36 31 26 20 -11 21 -16
15 -138z m136 115 c10 -15 -3 -356 -15 -378 -5 -11 -20 -18 -37 -18 -39 0 -42
23 -31 219 10 175 18 206 53 195 12 -4 25 -12 30 -18z m101 -6 c3 -17 8 -99
11 -183 7 -183 12 -217 29 -217 21 0 27 35 32 195 7 213 7 215 49 215 25 0 37
-6 46 -21 12 -23 9 -402 -3 -415 -12 -11 -218 17 -218 30 3 98 21 380 26 400
8 35 20 33 28 -4z m311 0 c9 -14 -14 -389 -26 -417 -11 -28 -45 -30 -59 -4
-20 39 -4 340 21 404 12 28 51 38 64 17z m120 -32 c8 -56 -11 -316 -28 -365
-32 -99 -49 -6 -38 213 8 162 15 194 47 194 7 0 15 -17 19 -42z m148 10 c7
-47 -11 -350 -22 -381 -5 -14 -20 -28 -32 -32 -42 -14 -49 14 -49 189 1 222
10 255 71 256 22 0 28 -5 32 -32z m135 -182 c2 -145 -1 -213 -9 -222 -17 -21
-66 -17 -79 5 -14 26 -13 366 1 392 11 22 45 39 69 36 13 -2 15 -34 18 -211z"/>
<path d="M5087 9083 c-3 -2 5 -28 18 -56 13 -28 22 -54 20 -57 -2 -4 -144 -69
-315 -145 -186 -83 -310 -143 -310 -151 0 -8 4 -14 8 -14 20 0 134 44 319 123
109 47 234 99 278 117 91 36 155 76 155 97 0 14 -12 13 -58 -5 -7 -2 -35 18
-62 46 -27 28 -51 48 -53 45z"/>
<path d="M4040 9027 c0 -12 23 -114 50 -227 28 -113 50 -218 50 -235 0 -35 24
-75 46 -75 19 0 36 47 28 74 -4 11 -15 32 -25 46 -10 14 -23 52 -29 85 -6 33
-27 114 -46 179 -44 150 -74 212 -74 153z"/>
<path d="M5310 8682 c0 -9 31 -83 70 -162 38 -80 70 -155 70 -166 0 -25 -67
-63 -257 -144 -74 -31 -123 -58 -123 -66 0 -18 11 -16 229 58 96 32 181 56
187 54 18 -7 221 -425 285 -588 l18 -46 -67 -35 c-37 -19 -184 -85 -327 -145
-312 -131 -355 -151 -355 -164 0 -22 46 -6 555 191 l230 89 55 -117 c31 -64
98 -207 149 -318 56 -120 99 -203 107 -203 8 0 14 2 14 5 0 11 -66 169 -164
388 -58 131 -106 246 -106 256 0 14 35 33 148 81 236 100 549 256 562 279 6
13 7 21 1 21 -6 0 -86 -36 -179 -79 -259 -121 -549 -230 -573 -215 -5 3 -25
36 -44 74 -52 103 -234 506 -240 532 -8 32 13 50 109 90 81 34 108 58 63 58
-13 0 -67 -13 -121 -29 l-97 -29 -45 91 c-67 135 -136 257 -146 257 -4 0 -8
-8 -8 -18z"/>
<path d="M4275 8198 c4 -18 25 -95 47 -171 46 -158 50 -144 -54 -194 -32 -14
-58 -33 -58 -40 0 -14 4 -14 109 12 l53 14 11 -30 c12 -31 27 -39 27 -14 0 46
31 74 135 124 150 72 140 98 -17 41 -45 -16 -88 -30 -95 -30 -18 0 -53 75 -98
208 -25 72 -43 112 -52 112 -11 0 -13 -8 -8 -32z"/>
<path d="M4969 8116 c-110 -39 -287 -117 -300 -132 -6 -8 -9 -17 -5 -21 11
-12 346 123 374 150 25 25 -2 26 -69 3z"/>
<path d="M6585 7004 c-81 -30 -281 -134 -305 -159 l-23 -25 22 0 c32 0 361
170 361 187 0 16 -4 16 -55 -3z"/>
<path d="M6010 6731 c-8 -5 -53 -17 -100 -26 -102 -21 -157 -42 -500 -194
-227 -101 -349 -151 -494 -204 -33 -12 -86 -54 -86 -68 0 -6 15 -7 34 -4 29 6
37 3 51 -19 25 -38 45 -33 45 9 0 35 3 37 73 70 39 19 250 104 467 189 467
182 488 191 518 218 33 31 28 49 -8 29z"/>
<path d="M7090 4194 c-36 -8 -110 -36 -165 -63 -55 -27 -158 -73 -229 -101
-183 -72 -284 -120 -290 -136 -3 -8 0 -14 8 -14 23 0 147 46 365 134 222 91
230 92 231 41 0 -30 11 -65 20 -65 4 0 10 25 12 55 5 62 20 82 84 116 24 13
44 30 44 36 0 15 4 15 -80 -3z"/>
<path d="M5350 5071 c0 -74 83 -291 112 -291 16 0 3 77 -26 152 -14 34 -32 89
-41 121 -20 68 -45 79 -45 18z"/>
<path d="M5470 4746 c0 -31 55 -220 92 -318 33 -86 54 -103 45 -35 -7 51 -71
264 -99 330 -22 51 -38 61 -38 23z"/>
<path d="M1045 4074 c7 -40 116 -431 281 -1011 76 -267 113 -383 123 -383 20
0 10 54 -53 285 -79 288 -304 1060 -323 1106 -19 50 -38 51 -28 3z"/>
<path d="M6130 3049 c0 -7 12 -41 26 -77 14 -35 23 -74 20 -86 -6 -24 1 -36
29 -52 11 -6 39 -36 63 -67 66 -87 99 -74 42 16 -46 73 -47 73 78 112 49 16
73 37 59 52 -4 3 -47 -5 -97 -18 -68 -18 -95 -21 -108 -13 -9 6 -33 39 -52 74
-33 60 -60 87 -60 59z"/>
<path d="M3935 1354 c-11 -3 -37 -10 -57 -15 -21 -5 -38 -16 -38 -24 0 -12 24
-20 125 -38 11 -2 -13 -7 -52 -11 -40 -4 -73 -11 -73 -16 0 -13 64 -19 258
-24 181 -4 242 -18 138 -31 -31 -4 -56 -11 -56 -15 0 -11 52 -18 195 -26 l120
-7 -92 -21 c-50 -12 -95 -25 -99 -29 -5 -4 76 -5 178 -1 164 6 188 5 202 -9
14 -14 37 -15 154 -12 127 4 134 4 97 -9 -22 -8 -50 -15 -62 -15 -26 -1 -30
-16 -7 -25 9 -3 64 -6 122 -7 132 -1 219 -11 182 -21 -14 -4 -92 -14 -175 -23
-82 -9 -209 -23 -282 -31 -73 -8 -139 -14 -148 -14 -8 0 -15 -7 -15 -16 0 -19
68 -17 490 12 222 16 289 13 297 -13 3 -7 -14 -15 -38 -20 -23 -5 -44 -14 -47
-22 -4 -11 16 -12 109 -6 65 4 125 3 139 -3 25 -9 14 -15 -107 -57 -26 -9 -13
-27 15 -21 15 3 74 10 132 16 57 6 107 14 111 18 4 4 9 16 11 27 3 17 10 20
46 17 24 -2 42 1 42 7 0 19 -56 40 -124 47 -52 5 -75 13 -102 35 -22 17 -61
34 -104 43 -38 9 -167 48 -286 87 -253 82 -400 120 -574 149 -314 51 -430 78
-462 107 -19 17 -120 28 -163 17z"/>
<path d="M310 1399 c-107 -11 -209 -33 -266 -58 -39 -17 -44 -24 -44 -51 0
-23 9 -40 31 -61 32 -30 50 -35 172 -44 63 -5 77 -3 77 8 0 10 -15 17 -43 21
-50 8 -147 51 -147 66 0 16 30 27 185 69 76 21 141 43 143 50 2 6 -2 10 -10
10 -7 -1 -51 -5 -98 -10z"/>
<path d="M720 1112 c0 -4 55 -18 123 -30 197 -37 298 -63 316 -82 9 -10 22
-26 29 -34 10 -12 32 -16 92 -16 44 0 80 4 80 9 0 9 -84 31 -117 31 -13 0 -12
5 7 25 l23 24 -24 10 c-13 5 -55 15 -94 21 -38 6 -90 20 -114 31 -36 16 -67
19 -182 19 -77 0 -139 -4 -139 -8z"/>
<path d="M1540 876 c0 -8 16 -23 35 -35 19 -11 47 -38 62 -60 39 -56 103 -70
103 -22 0 12 9 21 26 25 25 7 25 8 9 26 -9 10 -29 23 -45 30 -15 6 -30 20 -33
31 -5 17 -15 19 -81 19 -59 0 -76 -3 -76 -14z"/>
<path d="M1270 610 c-28 -28 -27 -85 3 -104 34 -21 232 -73 327 -85 269 -35
480 -35 480 -1 0 15 -31 19 -227 30 -231 13 -305 23 -364 50 -24 11 -64 20
-89 20 -69 1 -76 10 -40 55 16 21 30 42 30 46 0 5 -22 9 -50 9 -37 0 -55 -5
-70 -20z"/>
</g>
</svg>
