<?xml version="1.0" standalone="no"?>
<!DOCTYPE svg PUBLIC "-//W3C//DTD SVG 20010904//EN"
 "http://www.w3.org/TR/2001/REC-SVG-20010904/DTD/svg10.dtd">
<svg version="1.0" xmlns="http://www.w3.org/2000/svg"
 width="2000.000000pt" height="2000.000000pt" viewBox="0 0 2000.000000 2000.000000"
 preserveAspectRatio="xMidYMid meet">
<metadata>
Created by potrace 1.15, written by Peter Selinger 2001-2017
</metadata>
<g transform="translate(0.000000,2000.000000) scale(0.100000,-0.100000)"
fill="#000000" stroke="none">
<path d="M9510 19493 c-1068 -51 -2169 -300 -3167 -717 -1407 -586 -2656
-1507 -3639 -2682 -695 -832 -1241 -1771 -1617 -2785 -329 -885 -520 -1801
-577 -2764 -13 -219 -13 -872 0 -1085 95 -1570 543 -3027 1338 -4350 1108
-1846 2821 -3270 4835 -4019 799 -297 1599 -479 2447 -555 545 -50 1195 -50
1740 0 2516 228 4816 1440 6450 3399 734 881 1321 1934 1690 3033 255 762 391
1434 470 2327 18 194 24 985 11 1222 -98 1712 -626 3311 -1556 4718 -510 771
-1139 1475 -1841 2061 -1581 1318 -3495 2074 -5559 2194 -152 9 -860 11 -1025
3z"/>
</g>
</svg>
