<?xml version="1.0" standalone="no"?>
<!DOCTYPE svg PUBLIC "-//W3C//DTD SVG 20010904//EN"
 "http://www.w3.org/TR/2001/REC-SVG-20010904/DTD/svg10.dtd">
<svg version="1.0" xmlns="http://www.w3.org/2000/svg"
 width="395.000000pt" height="227.000000pt" viewBox="0 0 395.000000 227.000000"
 preserveAspectRatio="xMidYMid meet">
<metadata>
Created by potrace 1.15, written by Peter Selinger 2001-2017
</metadata>
<g transform="translate(0.000000,227.000000) scale(0.100000,-0.100000)"
fill="#000000" stroke="none">
<path d="M173 2197 c-18 -5 -33 -14 -33 -19 0 -5 19 -50 41 -98 l42 -89 31 16
c17 8 33 17 34 18 2 2 -12 37 -32 79 -20 41 -36 80 -36 85 0 16 -13 18 -47 8z"/>
<path d="M356 1865 c-28 -22 -29 -25 -14 -47 9 -13 39 -50 68 -81 l53 -58 23
22 c13 13 24 27 24 32 0 8 -63 87 -114 144 -8 9 -18 6 -40 -12z"/>
<path d="M621 1596 c-36 -38 -35 -40 82 -129 l50 -38 23 28 c13 15 22 31 21
34 -1 4 -36 34 -78 67 l-77 61 -21 -23z"/>
<path d="M3260 1431 l0 -38 98 -6 c53 -2 97 -4 98 -3 1 0 4 17 7 37 5 35 4 37
-25 43 -17 3 -64 6 -104 6 l-74 0 0 -39z"/>
<path d="M3040 1454 c-8 -1 -48 -8 -89 -15 l-73 -11 5 -35 c4 -20 8 -37 10
-40 4 -4 187 24 193 30 2 2 1 20 -3 40 -5 36 -10 39 -43 31z"/>
<path d="M3640 1394 c-17 -43 -12 -48 68 -76 42 -15 84 -29 92 -33 11 -4 19 4
28 28 7 18 12 36 12 39 0 6 -164 68 -181 68 -5 0 -14 -12 -19 -26z"/>
<path d="M924 1365 c-10 -19 -16 -36 -14 -38 15 -13 171 -99 174 -96 2 2 11
18 20 36 l16 31 -83 48 c-45 25 -85 48 -88 50 -3 2 -14 -12 -25 -31z"/>
<path d="M2596 1350 c-43 -16 -81 -32 -84 -34 -2 -3 1 -21 8 -41 9 -28 16 -35
29 -30 9 4 51 18 93 33 80 28 85 33 68 76 -12 32 -16 32 -114 -4z"/>
<path d="M1260 1191 c-6 -17 -9 -34 -6 -39 3 -5 44 -24 92 -42 70 -26 88 -30
95 -19 11 17 23 59 18 63 -9 5 -171 66 -178 66 -5 0 -14 -13 -21 -29z"/>
<path d="M2280 1176 c-79 -62 -96 -84 -84 -103 25 -40 39 -38 112 23 40 32 72
62 72 66 0 12 -31 58 -39 58 -3 0 -31 -20 -61 -44z"/>
<path d="M1626 1089 c-21 -68 -23 -65 74 -84 49 -10 96 -15 105 -11 9 3 15 18
15 39 0 33 0 33 -67 45 -38 7 -80 15 -95 18 -19 4 -29 2 -32 -7z"/>
<path d="M1996 1005 c-4 -21 -5 -39 -3 -41 5 -6 189 -36 193 -32 1 2 5 19 9
39 l7 37 -74 11 c-40 7 -85 14 -99 17 -24 5 -27 1 -33 -31z"/>
<path d="M2376 962 c-2 -4 -7 -21 -10 -38 l-7 -31 90 -32 c50 -17 92 -31 95
-31 4 0 26 57 26 67 0 14 -187 77 -194 65z"/>
<path d="M2050 873 c-12 -32 -24 -79 -27 -105 l-6 -48 34 0 34 0 29 91 c15 49
27 92 25 93 -10 9 -49 26 -58 26 -5 0 -19 -26 -31 -57z"/>
<path d="M2716 785 c-24 -36 -20 -48 27 -83 23 -18 51 -44 61 -57 24 -32 37
-31 67 1 l24 26 -65 60 c-86 80 -94 83 -114 53z"/>
<path d="M2031 541 c-11 -7 -11 -18 -1 -62 17 -69 46 -139 59 -139 26 0 62 25
57 39 -12 36 -48 147 -52 159 -4 14 -42 16 -63 3z"/>
<path d="M2923 483 c-20 -4 -23 -11 -23 -46 0 -23 -9 -62 -20 -86 -11 -24 -19
-45 -18 -46 40 -27 54 -35 60 -35 25 0 64 148 52 197 -6 23 -9 24 -51 16z"/>
<path d="M2221 214 c-27 -34 -27 -36 7 -61 55 -41 162 -87 162 -70 0 1 4 17 9
34 9 32 9 33 -49 59 -33 14 -67 35 -76 45 -22 25 -29 24 -53 -7z"/>
<path d="M2695 180 c-22 -11 -59 -22 -82 -26 -45 -7 -49 -14 -36 -62 5 -22 9
-23 51 -17 46 7 152 49 152 60 0 13 -31 65 -38 64 -4 0 -25 -9 -47 -19z"/>
</g>
</svg>
