<?xml version="1.0" standalone="no"?>
<!DOCTYPE svg PUBLIC "-//W3C//DTD SVG 20010904//EN"
 "http://www.w3.org/TR/2001/REC-SVG-20010904/DTD/svg10.dtd">
<svg version="1.0" xmlns="http://www.w3.org/2000/svg"
 width="981.000000pt" height="986.000000pt" viewBox="0 0 981.000000 986.000000"
 preserveAspectRatio="xMidYMid meet">
<metadata>
Created by potrace 1.15, written by Peter Selinger 2001-2017
</metadata>
<g transform="translate(0.000000,986.000000) scale(0.100000,-0.100000)"
fill="#000000" stroke="none">
<path d="M7406 9038 c-3 -13 -7 -50 -10 -83 -6 -64 -49 -202 -85 -272 -12 -24
-39 -55 -61 -69 -22 -15 -40 -30 -40 -34 0 -26 44 -58 95 -69 63 -14 113 -56
172 -143 18 -27 37 -48 42 -48 5 0 15 26 21 58 15 73 41 132 86 195 33 45 35
52 23 74 -15 28 -49 57 -107 92 -64 38 -85 87 -92 211 -4 88 -8 105 -22 108
-11 2 -19 -5 -22 -20z m98 -335 c86 -82 84 -72 23 -182 l-35 -63 -73 63 c-41
34 -76 64 -78 66 -11 9 65 196 78 191 5 -2 43 -36 85 -75z"/>
<path d="M1627 8463 c-2 -4 -8 -37 -11 -73 -10 -91 -39 -170 -102 -281 -72
-126 -71 -140 5 -174 56 -25 132 -98 162 -156 l22 -44 18 90 c21 112 32 139
69 182 17 19 30 38 30 42 0 5 -22 25 -49 44 -75 54 -103 119 -110 259 -4 71
-10 113 -18 115 -6 2 -13 0 -16 -4z m93 -413 c0 -26 -44 -140 -55 -140 -9 0
-125 76 -142 93 -5 6 61 141 90 180 l20 29 43 -74 c24 -40 43 -80 44 -88z"/>
<path d="M4828 7439 c-228 -15 -494 -73 -714 -154 -233 -86 -527 -255 -734
-421 -205 -165 -450 -444 -564 -642 -59 -101 -109 -152 -150 -152 -133 1
-1189 -40 -1406 -55 -251 -17 -413 -61 -550 -150 -222 -144 -309 -401 -200
-592 60 -105 157 -179 401 -306 414 -217 1003 -448 1305 -512 63 -13 127 -32
144 -42 42 -24 65 -79 89 -206 65 -350 282 -792 544 -1109 98 -120 277 -297
392 -388 192 -153 472 -311 699 -395 142 -52 329 -102 496 -132 196 -34 548
-44 749 -19 631 77 1162 348 1617 827 130 137 291 354 354 479 81 160 114 182
295 191 142 8 943 118 1095 151 207 44 342 100 463 192 216 162 263 401 121
615 -74 111 -193 204 -357 281 -128 60 -1112 459 -1212 491 -144 48 -175 82
-215 240 -44 170 -166 432 -294 628 -233 357 -562 666 -915 860 -343 188 -707
293 -1111 321 -159 11 -172 11 -342 -1z m532 -64 c158 -24 360 -72 495 -116
309 -102 762 -381 816 -504 15 -34 27 -45 64 -59 28 -11 57 -33 78 -59 36 -45
240 -334 345 -489 104 -154 304 -583 289 -622 -9 -23 -46 -20 -177 15 -173 45
-824 189 -858 189 -16 0 -89 11 -161 25 -72 13 -256 45 -409 70 -152 25 -311
55 -352 65 -177 45 -401 91 -485 100 -543 60 -580 62 -1265 66 -360 3 -707 5
-771 4 -121 0 -169 9 -169 34 0 8 31 62 70 120 64 96 160 203 268 300 24 22
54 62 66 90 17 39 46 71 117 135 283 251 586 424 967 550 153 51 246 73 410
96 130 19 517 13 662 -10z m-2761 -1391 c66 -14 91 -14 185 -3 124 14 487 7
696 -13 74 -7 260 -11 455 -10 309 2 339 0 470 -23 77 -13 201 -29 275 -35 74
-6 214 -20 310 -31 96 -11 229 -24 295 -29 66 -5 195 -22 286 -38 91 -17 206
-33 255 -37 49 -4 211 -31 359 -60 149 -29 308 -59 355 -65 99 -13 166 -29
425 -98 375 -101 609 -178 930 -305 105 -42 243 -90 307 -106 64 -17 152 -48
195 -70 43 -21 148 -67 233 -101 85 -35 212 -91 281 -126 115 -57 136 -72 227
-161 83 -82 106 -111 137 -176 43 -90 55 -172 35 -233 -26 -77 -200 -235 -335
-301 -132 -66 -370 -128 -550 -144 -66 -5 -210 -23 -320 -40 -206 -30 -305
-36 -305 -19 0 5 26 17 58 25 150 42 205 59 312 97 204 72 329 126 393 169
113 76 139 110 139 186 0 71 -32 108 -153 178 -295 169 -592 296 -1053 453
-367 124 -351 119 -631 181 -121 27 -321 78 -445 114 -233 67 -293 81 -395 92
-68 7 -624 103 -634 109 -3 3 -69 12 -146 21 -77 9 -205 29 -285 45 -432 86
-952 144 -1445 160 -159 5 -371 15 -471 20 -99 6 -247 10 -330 10 -82 -1 -216
4 -299 10 -203 16 -623 1 -930 -35 -294 -33 -321 -41 -396 -113 -32 -32 -61
-70 -65 -86 -9 -39 11 -112 43 -154 35 -47 199 -181 314 -258 109 -73 597
-315 804 -399 134 -54 164 -70 154 -79 -7 -7 -269 61 -318 82 -25 11 -165 61
-311 112 -146 50 -321 119 -390 152 -69 33 -170 82 -225 109 -97 47 -330 190
-410 251 -49 38 -110 114 -130 162 -20 48 -19 149 1 193 17 34 146 152 226
205 38 25 199 83 340 122 130 36 253 56 352 56 55 0 153 7 216 15 159 22 592
45 724 39 60 -2 144 -12 185 -20z m-99 -424 c74 -5 243 -12 375 -15 292 -7
618 -28 945 -60 135 -14 335 -29 445 -35 110 -5 227 -14 260 -20 33 -5 132
-19 221 -30 88 -11 270 -40 405 -64 134 -24 321 -56 414 -70 225 -35 314 -53
740 -147 421 -93 602 -139 737 -185 54 -19 104 -34 112 -34 27 0 382 -122 421
-145 23 -13 137 -53 255 -89 166 -52 249 -84 365 -141 83 -41 164 -79 180 -85
53 -20 215 -122 241 -152 52 -63 24 -120 -96 -193 -171 -104 -752 -281 -955
-291 l-100 -5 40 25 c22 14 65 30 95 36 30 6 80 16 110 22 30 6 111 32 180 59
219 85 260 164 142 271 -59 53 -121 86 -240 128 -59 21 -132 52 -162 68 -43
23 -118 44 -335 90 -547 118 -1004 209 -1100 218 -71 6 -367 63 -562 108 -249
58 -454 81 -1143 131 -261 19 -655 50 -875 69 -497 44 -635 53 -1000 66 -159
6 -306 13 -326 15 -42 6 -187 -11 -242 -27 -89 -26 -121 -94 -93 -192 26 -89
51 -109 216 -172 79 -30 155 -62 168 -70 27 -18 24 -40 -6 -37 -81 9 -741 312
-828 380 -22 16 -91 64 -154 105 -208 136 -262 201 -230 278 25 61 137 121
282 150 82 17 173 24 628 50 139 8 234 6 470 -10z m-142 -555 c11 -10 12 -39
5 -146 l-8 -134 -35 1 c-19 1 -70 16 -113 34 -155 64 -225 134 -199 196 19 45
48 57 157 64 115 8 174 4 193 -15z m313 0 c93 -11 209 -15 342 -13 220 3 614
-15 717 -32 35 -6 81 -8 103 -5 24 5 72 0 130 -13 105 -23 570 -69 787 -77 80
-4 217 -15 305 -26 88 -10 198 -24 245 -30 47 -6 164 -25 260 -44 96 -18 222
-38 280 -45 58 -6 128 -18 155 -25 28 -8 109 -21 180 -29 72 -9 164 -25 205
-36 41 -11 118 -27 170 -36 52 -8 138 -26 190 -41 52 -14 124 -30 160 -35 35
-5 103 -25 150 -45 47 -19 123 -46 170 -58 97 -26 274 -91 306 -112 21 -13 21
-16 8 -83 -20 -108 -50 -200 -121 -368 -86 -209 -122 -275 -202 -374 -37 -46
-99 -134 -139 -196 -132 -208 -246 -338 -427 -486 -345 -283 -668 -448 -1075
-551 -198 -50 -670 -58 -948 -16 -321 49 -657 168 -902 320 -283 176 -504 369
-562 491 -17 36 -50 85 -73 110 -54 58 -253 329 -323 440 -68 109 -138 251
-153 315 -7 28 -21 67 -31 88 -28 56 -70 203 -78 272 -4 33 -15 92 -25 130
-26 104 -34 564 -11 600 20 30 23 30 207 10z m5176 -791 c110 -34 173 -70 173
-100 0 -26 -32 -64 -76 -90 -26 -15 -101 -38 -196 -59 -173 -39 -218 -43 -218
-20 0 25 81 309 92 322 10 13 25 9 225 -53z"/>
<path d="M6504 6606 c-11 -8 -91 -45 -178 -82 -144 -61 -180 -84 -163 -101 4
-3 66 17 139 44 73 28 157 56 186 63 42 10 56 18 68 41 8 16 12 34 9 39 -9 14
-37 12 -61 -4z"/>
<path d="M6930 3909 c-177 -77 -346 -144 -442 -174 -48 -15 -95 -33 -105 -41
-33 -24 45 -17 155 16 99 29 400 143 464 176 62 31 94 75 55 74 -7 0 -64 -23
-127 -51z"/>
<path d="M6878 3615 c-12 -12 -441 -163 -607 -214 -109 -33 -186 -62 -189 -70
-7 -21 46 -10 289 63 247 74 490 158 525 181 28 18 32 45 6 45 -10 0 -21 -2
-24 -5z"/>
<path d="M6590 3283 c-111 -51 -382 -153 -629 -238 -269 -91 -291 -100 -291
-115 0 -19 44 -9 273 66 293 95 266 86 436 150 207 79 309 133 295 155 -8 14
-24 10 -84 -18z"/>
<path d="M6064 2855 c-33 -12 -153 -60 -269 -107 -115 -47 -234 -94 -263 -104
-30 -11 -52 -24 -50 -29 6 -20 107 -6 175 23 37 17 156 68 263 114 107 47 208
91 224 100 l29 15 -25 5 c-14 3 -52 -5 -84 -17z"/>
<path d="M3078 1528 c-9 -18 -18 -59 -22 -91 -14 -128 -66 -222 -146 -264 -55
-29 -54 -27 -46 -57 5 -19 23 -34 66 -56 78 -40 131 -88 161 -147 24 -49 67
-103 80 -103 18 0 19 44 4 85 -23 58 -15 94 40 199 25 47 45 91 45 98 0 7 -21
28 -46 47 -25 19 -57 54 -71 78 -24 41 -25 49 -18 126 6 74 4 84 -13 100 -19
17 -20 17 -34 -15z m64 -294 c27 -20 48 -39 46 -43 -2 -4 -19 -45 -38 -90 -19
-46 -40 -86 -47 -88 -6 -3 -41 16 -77 42 l-65 46 49 65 c27 36 54 74 60 84 6
11 13 20 17 20 3 0 27 -16 55 -36z"/>
<path d="M7548 1532 c-31 -9 -66 -26 -78 -37 -33 -29 -60 -90 -67 -145 -5 -41
-1 -56 20 -93 75 -127 214 -133 324 -14 71 77 69 168 -5 240 -36 35 -98 68
-124 66 -7 0 -38 -8 -70 -17z m143 -39 c69 -41 87 -187 30 -241 -81 -76 -198
-68 -260 19 -48 65 -42 87 44 195 33 42 136 57 186 27z"/>
</g>
</svg>
