<?xml version="1.0" encoding="iso-8859-1"?>
<!-- Generator: Adobe Illustrator 16.0.0, SVG Export Plug-In . SVG Version: 6.00 Build 0)  -->
<!DOCTYPE svg PUBLIC "-//W3C//DTD SVG 1.1//EN" "http://www.w3.org/Graphics/SVG/1.1/DTD/svg11.dtd">
<svg xmlns="http://www.w3.org/2000/svg" xmlns:xlink="http://www.w3.org/1999/xlink" version="1.1" id="Capa_1" x="0px" y="0px" width="512px" height="512px" viewBox="0 0 192.158 192.158" style="enable-background:new 0 0 192.158 192.158;" xml:space="preserve">
<g>
	<path d="M185.708,0.007c-26.307-0.333-51.778,11.092-73.732,24.688c-10.955,6.785-20.805,15.06-29.638,24.41   c-6.036,6.389-15.205,14.923-16.731,23.919c-0.003,0.017,0.002,0.03,0,0.047c-11.793-1.911-25.211,2.141-36.856,4.254   c-0.652-0.121-1.316-0.003-1.902,0.42c-0.266,0.115-0.471,0.278-0.589,0.494c-5.653,5.859-10.941,13.784-14.227,21.178   c-0.282,0.635-0.221,1.266,0.017,1.798c-0.459,0.636-0.325,1.776,0.602,1.979c9.117,1.987,18.043,4.815,27.113,6.972   c-7.956,6.628-6.661,16.907-0.074,24.86c7.206,8.699,20.846,13.209,31.292,8.177c-0.11,8.72,3.137,18.45,6.76,26.009   c0.83,1.731,2.92,1.358,3.877,0.123c4.223-0.235,7.573-2.953,10.955-5.448c5.192-3.832,11.879-5.557,16.669-9.879   c1.265-1.142,0.717-3.166-0.527-4.002c-0.001-4.31-0.508-8.613-1.153-12.878c-0.659-4.36-0.698-9.64-2.58-13.754   c50.325-18.601,73.88-66.19,81.742-117.235C189.733,5.055,189.443,0.055,185.708,0.007z M101.851,120.547   c-1.016-0.041-1.99,0.444-2.282,1.569c-0.171,0.335-0.223,0.706-0.158,1.077c-0.469,4.465,1.23,8.891,2.204,13.268   c1.046,4.707,2.05,9.439,3.556,14.019c-3.957,1.771-7.731,4.233-11.406,6.468c-4.152,2.523-7.305,7.807-12.039,9.358   c-2.478-8.657-6.858-16.812-7.517-25.951c-0.099-1.366-1.377-1.763-2.265-1.278c-0.605-0.871-1.6-1.409-2.769-0.934   c-8.433,3.433-17.068,0.634-23.593-5.366c-6.814-6.268-7.069-14.44-1.926-21.689l0.005,0.001c2.565,0.54,3.578-3.101,1.081-3.921   c-9.307-3.054-19.13-4.856-28.877-6.018c5.699-5.761,10.074-13.428,14.84-19.919c0.104-0.141,0.127-0.284,0.195-0.427   c11.843,0.607,25.217-0.25,36.44-3.068c1.296-0.325,1.827-1.689,1.562-2.827c0.115-0.111,0.236-0.206,0.336-0.352   c25.175-36.722,66.731-64.062,111.519-67.784c-3.536,23.957-10.938,46.325-23.271,67.307   C145.214,94.957,122.533,109.423,101.851,120.547z" fill="#FFFFFF"/>
	<path d="M148.015,45.587c-0.39-3.454-1.938-6.876-4.755-9.01c-2.307-1.747-6.102-2.817-8.94-1.686   c-15.742-2.207-18.466,28.192,0.398,27.416C143.206,61.958,148.926,53.647,148.015,45.587z M134.718,56.34   c-5.336,0.653-7.682-3.426-7.407-8.183c0.201-3.48,2.37-6.973,5.343-9.032c0.215,0.186,0.436,0.37,0.715,0.486   c2.193,0.909,4.419,0.033,6.551,1.378c1.693,1.069,2.155,3.5,2.241,5.321C142.384,51.003,139.665,55.735,134.718,56.34z" fill="#FFFFFF"/>
	<path d="M45.965,158.614c-0.947,5.458-2.778,10.062-6.927,13.202c-1.39-5.635-3.541-10.526-7.182-15.404   c-1.56-2.09-4.747-1.428-4.921,1.333c-0.724,11.484-3.491,20.662-12.631,27.193c-1.92-10.072,2.128-20.075,1.384-30.355   c-0.112-1.552-1.154-2.612-2.714-2.714c-1.198-0.126-2.398-0.19-3.599-0.209c1.138-11.031,6.411-18.588,15.236-25.758   c1.055-0.858-0.075-2.726-1.326-2.278c-13.65,4.87-19.283,17.157-19.894,30.96c-0.066,1.484,1.355,2.967,2.865,2.865   c1.318-0.154,2.637-0.212,3.957-0.219c-0.5,11.395-4.765,22.539-0.047,33.549c0.584,1.362,2.66,1.752,3.825,1.003   c10.35-6.657,15.049-15.014,17.126-25.749c1.51,3.469,2.557,7.075,3.207,11.053c0.328,2.006,2.693,2.377,4.21,1.713   c7.935-3.473,12.538-10.868,12.695-19.471C51.284,156.36,46.49,155.592,45.965,158.614z" fill="#FFFFFF"/>
</g>
<g>
</g>
<g>
</g>
<g>
</g>
<g>
</g>
<g>
</g>
<g>
</g>
<g>
</g>
<g>
</g>
<g>
</g>
<g>
</g>
<g>
</g>
<g>
</g>
<g>
</g>
<g>
</g>
<g>
</g>
</svg>
