<?xml version="1.0" standalone="no"?>
<!DOCTYPE svg PUBLIC "-//W3C//DTD SVG 20010904//EN"
 "http://www.w3.org/TR/2001/REC-SVG-20010904/DTD/svg10.dtd">
<svg version="1.0" xmlns="http://www.w3.org/2000/svg"
 width="619.000000pt" height="615.000000pt" viewBox="0 0 619.000000 615.000000"
 preserveAspectRatio="xMidYMid meet">
<metadata>
Created by potrace 1.15, written by Peter Selinger 2001-2017
</metadata>
<g transform="translate(0.000000,615.000000) scale(0.100000,-0.100000)"
fill="#000000" stroke="none">
<path d="M472 5308 c-17 -17 -15 -98 9 -265 50 -358 168 -678 344 -933 36 -52
72 -108 79 -125 24 -50 338 -404 910 -1025 170 -184 325 -352 344 -372 34 -36
34 -38 24 -80 -7 -24 -17 -116 -24 -206 -20 -269 8 -569 78 -852 46 -184 99
-331 180 -495 70 -142 184 -318 225 -348 42 -30 99 -33 133 -6 62 49 68 111
35 345 -27 187 -29 410 -6 541 15 80 76 275 92 291 11 11 77 -64 113 -127 46
-84 89 -131 116 -131 14 0 28 -11 40 -33 26 -44 67 -87 84 -87 8 0 55 14 103
30 l89 31 35 -27 c53 -40 111 -118 150 -201 19 -40 35 -76 35 -81 0 -22 51
-62 78 -62 33 0 120 53 207 128 l59 51 14 -32 c39 -92 95 -101 199 -31 168
115 312 259 396 396 57 94 49 145 -29 180 -50 22 -51 17 14 91 60 69 112 158
112 192 0 41 -13 52 -141 113 -88 42 -115 61 -167 116 l-61 66 20 47 c11 27
23 72 26 101 7 62 -8 84 -82 121 -31 15 -42 26 -38 37 9 24 -34 62 -144 126
-115 67 -135 85 -112 99 24 15 141 57 204 73 166 41 416 46 630 11 207 -34
316 -20 350 46 36 69 -2 130 -137 218 -302 200 -674 329 -1083 376 -238 28
-605 18 -730 -20 -15 -5 -43 15 -120 86 -732 673 -1310 1187 -1323 1174 -16
-15 502 -507 1768 -1680 190 -176 372 -343 403 -372 l57 -52 -39 -63 c-116
-184 -148 -231 -216 -313 -41 -49 -81 -90 -87 -90 -7 0 -166 155 -353 344
-407 413 -444 447 -499 462 -56 16 -112 -4 -143 -50 -36 -53 -30 -89 24 -163
55 -74 401 -422 623 -627 85 -79 156 -147 158 -152 8 -20 -247 -201 -399 -283
l-86 -46 -99 108 c-467 508 -1493 1598 -1805 1916 l-186 190 71 21 c204 60
449 252 608 475 79 110 175 297 183 355 6 40 5 40 -56 83 -290 204 -612 328
-992 381 -167 24 -248 26 -265 9z m378 -92 c247 -46 477 -124 735 -251 94 -46
176 -88 183 -93 11 -7 -1 -38 -57 -148 -82 -161 -128 -226 -249 -347 -137
-139 -322 -269 -487 -342 -71 -31 -62 -38 -140 115 -155 309 -258 632 -295
930 -5 46 -10 104 -10 129 l0 44 93 -6 c50 -3 153 -17 227 -31z m2955 -1687
c450 -33 809 -142 1155 -348 116 -70 140 -88 140 -107 0 -25 -70 -26 -232 -4
-393 52 -623 32 -875 -77 l-84 -36 -47 45 c-38 36 -543 501 -576 530 -14 11
352 10 519 -3z m-966 -509 c52 -26 202 -173 650 -635 462 -477 651 -680 651
-699 0 -59 -108 21 -510 378 -445 396 -850 786 -901 869 -25 42 -24 53 6 82
29 30 54 31 104 5z m1326 -306 c36 -20 65 -38 65 -41 0 -3 -13 -23 -29 -46
-16 -23 -64 -96 -106 -162 -71 -109 -158 -227 -234 -313 l-29 -33 -45 47 -45
48 49 56 c118 134 253 337 287 433 9 26 18 47 19 47 1 0 32 -16 68 -36z m195
-174 c0 -3 -27 -51 -59 -106 -67 -113 -140 -210 -261 -349 l-84 -96 -34 35
-35 34 70 84 c105 124 199 261 250 365 l46 91 53 -26 c30 -14 54 -29 54 -32z
m-1787 -399 l254 -274 -32 -71 c-102 -220 -129 -492 -85 -831 21 -164 25 -270
10 -280 -14 -9 -42 23 -105 126 -73 118 -174 326 -215 444 -47 135 -97 336
-121 491 -17 110 -22 201 -26 439 l-5 300 36 -35 c19 -19 149 -158 289 -309z
m1801 100 c34 -32 87 -73 119 -91 31 -17 57 -37 57 -43 0 -14 -118 -173 -149
-201 -19 -17 -22 -17 -44 -3 -35 23 -202 179 -202 189 0 10 146 208 153 208 3
0 33 -26 66 -59z m251 -155 c17 -12 15 -17 -33 -87 -28 -41 -71 -94 -95 -117
-40 -39 -47 -43 -66 -32 -21 11 -20 13 33 70 30 33 72 86 93 119 21 34 41 61
44 61 3 0 14 -6 24 -14z m-237 -288 c42 -27 78 -51 80 -53 10 -10 -98 -156
-161 -219 -64 -63 -253 -204 -261 -195 -2 2 -15 27 -29 54 -39 78 -129 187
-203 246 l-66 53 50 48 c28 26 54 48 59 48 4 0 51 -35 103 -76 52 -42 110 -84
128 -92 30 -15 36 -15 60 -1 36 20 57 59 49 91 -4 14 -47 70 -97 124 -49 55
-90 102 -90 106 0 4 21 32 48 61 l47 53 104 -99 c57 -54 138 -121 179 -149z
m-769 198 l44 -44 -38 -34 c-69 -61 -219 -169 -285 -205 -36 -20 -105 -58
-154 -85 -48 -27 -89 -48 -91 -46 -1 2 -13 28 -27 59 l-25 56 66 31 c85 39
251 149 366 240 50 40 92 72 95 72 3 0 25 -20 49 -44z m170 -149 c9 -12 -4
-28 -73 -87 -158 -135 -301 -232 -420 -285 l-56 -25 -20 40 c-25 50 -25 57 3
64 59 15 347 207 462 309 40 35 40 35 66 16 14 -10 31 -24 38 -32z m741 -123
c0 -10 -44 -91 -64 -119 -39 -52 -39 -62 -1 -20 21 22 49 62 65 88 22 39 29
45 39 34 18 -22 -56 -125 -178 -248 -111 -111 -276 -240 -297 -232 -7 2 -17
18 -23 33 -9 28 -8 30 72 84 45 30 111 80 146 113 65 59 171 192 199 250 9 19
20 29 28 26 8 -3 14 -7 14 -9z m-805 -100 l25 -16 -43 -40 -42 -40 48 37 48
38 35 -34 34 -33 -28 -30 -27 -31 32 29 32 29 28 -33 c63 -74 63 -68 2 -123
-52 -47 -165 -127 -178 -127 -3 0 -21 27 -39 59 -19 32 -60 88 -93 124 l-59
65 62 43 c35 23 79 55 98 71 41 33 35 32 65 12z m234 -253 c9 -16 2 -28 -50
-75 -55 -51 -170 -136 -184 -136 -3 0 -9 10 -14 22 -7 20 0 28 68 75 42 28 94
70 116 92 44 47 50 48 64 22z"/>
<path d="M720 5154 c129 -30 318 -84 489 -139 173 -56 226 -66 134 -25 -160
72 -485 161 -633 174 l-55 5 65 -15z"/>
<path d="M3030 2676 c177 -183 897 -845 985 -905 38 -25 -140 142 -300 283
-185 164 -480 433 -645 591 -79 75 -92 85 -40 31z"/>
<path d="M1865 4683 c28 -26 120 -115 205 -198 146 -142 448 -427 1135 -1071
302 -284 559 -516 577 -523 6 -2 8 3 6 10 -5 15 -54 61 -773 729 -1054 980
-1184 1100 -1192 1100 -4 0 15 -21 42 -47z"/>
<path d="M1945 4186 c-80 -25 -151 -70 -218 -136 -90 -91 -127 -169 -134 -283
-20 -315 246 -563 538 -502 156 32 278 123 343 257 132 269 13 553 -273 654
-75 27 -189 31 -256 10z m217 -41 c115 -24 257 -144 299 -252 32 -82 31 -214
-1 -298 -75 -194 -248 -307 -449 -292 -279 21 -463 356 -335 609 87 171 298
273 486 233z"/>
<path d="M1967 4071 c-181 -60 -288 -223 -258 -394 21 -122 91 -220 193 -274
47 -25 64 -28 148 -28 82 0 103 4 151 26 107 51 180 138 205 248 19 77 17 118
-6 194 -53 172 -265 283 -433 228z m249 -116 c60 -42 106 -110 118 -172 5 -28
2 -33 -13 -33 -10 0 -98 27 -195 61 -97 33 -199 63 -226 66 -28 3 -50 9 -50
14 0 10 57 57 94 76 48 25 85 32 153 30 54 -3 70 -8 119 -42z m-79 -166 c90
-33 170 -59 178 -59 20 0 20 -49 0 -96 -14 -35 -16 -36 -56 -29 -74 13 -460
103 -467 109 -9 10 15 115 32 141 15 23 16 23 83 8 37 -9 141 -42 230 -74z
m142 -216 c3 -2 -7 -15 -21 -30 -26 -26 -27 -26 -100 -14 -40 6 -122 23 -181
37 -60 14 -111 24 -113 21 -3 -3 55 -19 128 -37 73 -17 151 -36 173 -42 l40
-11 -40 -18 c-57 -26 -165 -25 -222 2 -53 25 -119 99 -101 111 10 6 9 8 -4 8
-16 0 -38 46 -38 81 0 15 27 10 238 -43 130 -33 239 -62 241 -65z"/>
<path d="M4722 1938 c2 -6 39 -19 81 -29 184 -44 292 -130 381 -305 30 -60 64
-122 75 -139 l21 -30 -88 -6 c-81 -5 -92 -3 -150 23 -35 16 -71 29 -80 31 -43
6 -17 -24 79 -90 222 -153 330 -315 393 -593 9 -35 14 -66 12 -68 -2 -1 -26
11 -52 28 -51 32 -124 57 -184 62 -45 4 -50 -17 -16 -66 14 -21 32 -72 42
-114 29 -131 88 -243 182 -345 l45 -47 -44 0 c-25 0 -83 5 -129 10 -300 38
-629 151 -832 287 -82 55 -204 181 -238 246 -26 50 -52 59 -73 25 -9 -13 -3
-29 25 -75 20 -32 35 -59 34 -60 -1 -2 -27 4 -57 13 -137 40 -232 120 -286
240 -15 35 -32 64 -37 64 -16 0 0 -105 24 -154 55 -109 221 -211 379 -233 35
-5 59 -18 112 -63 226 -190 660 -327 1096 -347 121 -6 133 -5 139 12 5 13 -1
23 -22 38 -56 39 -179 173 -209 227 -26 50 -98 270 -90 278 2 2 26 -8 55 -23
60 -30 131 -92 161 -141 22 -36 49 -43 69 -19 10 12 7 40 -14 143 -62 310
-154 497 -306 620 l-53 42 96 0 c109 0 120 8 81 62 -14 18 -54 92 -89 164 -51
106 -74 142 -123 190 -64 65 -145 113 -231 138 -65 19 -185 22 -179 4z"/>
<path d="M4780 1316 c0 -7 26 -23 58 -35 31 -12 78 -36 104 -52 51 -33 155
-139 205 -211 l33 -46 -78 44 c-95 54 -172 84 -217 84 -40 0 -44 -9 -14 -36
37 -34 69 -111 99 -244 16 -71 36 -146 45 -166 8 -20 14 -39 12 -41 -10 -10
-161 32 -224 61 -92 44 -151 99 -225 210 -102 151 -166 206 -238 206 -44 0
-42 -35 4 -50 61 -20 113 -67 184 -167 132 -186 244 -262 424 -289 51 -7 103
-16 116 -19 30 -7 28 9 -7 76 -16 30 -43 108 -60 174 -17 66 -44 146 -59 178
-16 31 -28 57 -27 57 20 0 170 -62 233 -96 46 -25 86 -43 89 -40 11 10 -67
133 -132 209 -37 43 -97 101 -133 128 -89 65 -192 100 -192 65z"/>
</g>
</svg>
