<?xml version="1.0" standalone="no"?>
<!DOCTYPE svg PUBLIC "-//W3C//DTD SVG 20010904//EN"
 "http://www.w3.org/TR/2001/REC-SVG-20010904/DTD/svg10.dtd">
<svg version="1.0" xmlns="http://www.w3.org/2000/svg"
 width="619.000000pt" height="615.000000pt" viewBox="0 0 619.000000 615.000000"
 preserveAspectRatio="xMidYMid meet">
<metadata>
Created by potrace 1.15, written by Peter Selinger 2001-2017
</metadata>
<g transform="translate(0.000000,615.000000) scale(0.100000,-0.100000)"
fill="#000000" stroke="none">
<path d="M0 3075 l0 -3075 3095 0 3095 0 0 3075 0 3075 -3095 0 -3095 0 0
-3075z m707 2230 c381 -50 719 -175 998 -370 l86 -60 -6 -40 c-13 -92 -134
-303 -263 -458 -143 -173 -381 -337 -549 -380 l-53 -13 86 -84 c197 -194 1799
-1893 1974 -2093 l32 -37 87 46 c153 83 407 263 399 283 -2 4 -70 70 -153 146
-219 203 -574 560 -628 633 -51 70 -58 102 -32 153 20 37 70 69 109 69 69 0
111 -36 489 -417 205 -206 376 -381 380 -389 15 -27 34 -14 108 79 105 130
121 152 179 253 29 49 59 96 67 105 13 15 9 22 -34 61 -989 911 -1897 1763
-2112 1982 -165 167 -32 69 274 -203 180 -160 906 -818 1050 -952 l30 -28 60
17 c51 14 106 17 365 17 267 -1 322 -4 440 -23 335 -55 647 -166 905 -322 154
-93 215 -153 215 -210 0 -35 -28 -79 -63 -97 -41 -22 -173 -22 -307 1 -132 23
-365 31 -472 17 -130 -17 -304 -66 -357 -100 -22 -14 -2 -33 96 -88 109 -61
166 -110 160 -135 -4 -14 3 -22 26 -32 18 -7 47 -26 66 -41 32 -28 33 -31 28
-86 -3 -31 -14 -78 -26 -104 l-21 -47 69 -69 c57 -57 88 -78 168 -115 118 -56
133 -68 133 -110 0 -33 -62 -134 -136 -221 l-35 -41 43 -20 c52 -23 69 -42 70
-79 3 -98 -216 -349 -430 -494 -92 -61 -136 -66 -176 -18 -14 17 -29 41 -32
55 -6 23 -8 22 -78 -35 -190 -157 -236 -159 -295 -14 -35 87 -100 181 -161
232 l-41 33 -52 -21 c-28 -11 -73 -26 -99 -33 -45 -11 -49 -11 -73 12 -15 14
-36 42 -48 62 -14 25 -28 38 -42 38 -28 0 -63 38 -115 125 -40 67 -96 135
-111 135 -13 0 -68 -168 -90 -272 -29 -139 -29 -357 0 -558 34 -233 24 -323
-40 -355 -74 -39 -129 -7 -221 130 -192 285 -318 637 -374 1045 -22 158 -25
547 -5 665 8 44 14 90 15 102 1 15 -64 92 -214 254 -734 795 -1029 1127 -1068
1197 -9 17 -48 76 -85 131 -175 259 -295 596 -342 956 -18 143 -19 217 -3 233
16 16 93 15 235 -3z m1599 -1016 c258 -239 660 -613 894 -829 512 -475 597
-557 588 -566 -11 -10 -206 164 -633 566 -126 119 -385 362 -575 541 -512 481
-774 734 -754 728 7 -2 223 -200 480 -440z m-115 -109 c123 -38 241 -136 294
-244 51 -104 57 -247 14 -361 -64 -173 -208 -287 -397 -317 -180 -28 -368 74
-455 248 -47 95 -61 160 -54 260 6 108 44 191 124 275 135 142 306 192 474
139z m2710 -2246 c86 -25 167 -73 231 -138 47 -47 72 -84 118 -180 33 -67 72
-141 89 -165 43 -64 36 -71 -76 -71 l-95 0 54 -44 c159 -130 247 -313 314
-658 13 -71 14 -91 4 -103 -20 -24 -47 -17 -69 19 -31 50 -105 114 -164 141
-28 13 -52 23 -53 22 -9 -8 71 -239 98 -285 33 -57 148 -182 202 -219 21 -15
27 -25 22 -38 -6 -17 -18 -18 -149 -12 -444 21 -894 169 -1110 365 -32 30 -53
41 -89 45 -173 23 -351 143 -392 264 -17 49 -22 123 -8 123 4 0 20 -28 35 -63
51 -116 153 -204 275 -237 24 -6 50 -14 58 -17 9 -3 0 20 -22 55 -39 67 -40
102 -1 102 16 0 30 -14 51 -51 66 -119 213 -242 396 -334 210 -106 600 -205
804 -205 l39 0 -45 47 c-93 101 -149 203 -179 331 -23 95 -31 116 -62 150 -18
19 -19 24 -6 37 12 12 23 12 80 0 66 -13 162 -55 174 -75 3 -5 10 -10 15 -10
24 0 -50 242 -108 355 -56 107 -146 207 -253 279 -118 80 -151 108 -141 118 7
7 38 -2 89 -23 72 -31 85 -34 166 -31 l88 3 -19 27 c-11 15 -45 78 -77 141
-42 85 -71 128 -111 167 -64 63 -174 120 -275 143 -40 9 -74 22 -77 29 -6 18
112 16 179 -4z m-28 -624 c67 -25 169 -109 247 -203 59 -71 127 -184 117 -194
-3 -3 -44 16 -90 41 -64 35 -212 96 -233 96 -1 0 11 -24 26 -52 16 -29 43
-109 60 -178 19 -75 45 -150 65 -187 19 -34 31 -64 27 -67 -5 -3 -60 4 -123
14 -88 15 -132 29 -194 59 -94 47 -146 97 -260 249 -72 96 -86 110 -142 137
-70 34 -86 65 -33 65 73 0 132 -52 239 -208 104 -152 192 -214 357 -252 48
-11 88 -19 89 -18 2 2 -8 37 -20 78 -13 41 -34 118 -46 170 -23 102 -54 173
-88 204 -33 30 -26 39 28 34 50 -5 194 -67 254 -110 l32 -23 -34 47 c-97 135
-205 229 -310 268 -34 12 -61 29 -61 36 0 19 30 17 93 -6z"/>
<path d="M530 5203 c0 -76 36 -302 69 -430 53 -207 137 -428 236 -623 82 -160
64 -151 186 -90 223 111 439 286 572 465 78 105 194 334 175 347 -45 29 -262
134 -367 177 -282 116 -632 201 -828 201 l-43 0 0 -47z m286 -53 c141 -25 300
-71 444 -127 112 -44 149 -63 121 -63 -8 0 -98 28 -200 62 -102 33 -262 80
-356 104 -182 46 -186 56 -9 24z"/>
<path d="M3291 3534 c0 -5 106 -106 235 -224 129 -118 269 -246 310 -283 l74
-69 83 35 c257 110 486 130 877 77 213 -29 276 -15 198 43 -55 40 -247 148
-347 195 -204 95 -486 172 -761 207 -141 18 -670 33 -669 19z"/>
<path d="M2735 3014 c-14 -15 -25 -32 -25 -39 0 -54 346 -398 885 -880 411
-368 545 -469 545 -410 0 26 -700 761 -1083 1139 -225 221 -270 247 -322 190z
m930 -914 c171 -153 324 -292 340 -311 l30 -32 -30 21 c-81 56 -654 581 -890
815 l-160 159 200 -187 c110 -103 340 -313 510 -465z"/>
<path d="M4090 2737 c0 -52 -160 -307 -280 -445 l-68 -79 45 -45 45 -45 37 41
c75 82 160 196 236 317 43 68 89 139 102 157 22 30 24 52 3 52 -5 0 -32 14
-60 30 -58 34 -60 35 -60 17z"/>
<path d="M4202 2497 c-57 -111 -143 -237 -248 -361 l-66 -78 34 -34 34 -34 84
96 c47 52 115 136 153 186 64 87 173 266 166 272 -2 2 -27 15 -55 29 l-51 26
-51 -102z"/>
<path d="M2253 2190 c7 -390 38 -602 133 -890 67 -202 234 -530 307 -603 43
-43 47 29 17 263 -25 192 -27 419 -5 545 18 100 62 239 99 312 l24 48 -255
275 c-140 151 -270 291 -289 310 l-36 35 5 -295z"/>
<path d="M4230 2201 c-41 -55 -75 -104 -75 -108 0 -10 169 -169 204 -191 23
-16 25 -15 64 28 40 46 113 148 123 173 3 9 -18 27 -60 52 -36 21 -89 62 -118
92 -29 29 -55 53 -58 53 -3 0 -39 -45 -80 -99z"/>
<path d="M4556 2038 c-21 -32 -62 -85 -92 -118 -54 -58 -55 -59 -32 -71 20
-11 27 -7 75 45 63 67 136 173 129 185 -3 5 -14 11 -24 13 -13 4 -28 -10 -56
-54z"/>
<path d="M3489 1978 c-103 -84 -325 -230 -392 -257 l-55 -23 25 -56 c14 -31
27 -58 28 -60 5 -6 224 118 330 187 61 39 138 96 173 127 l63 57 -33 34 c-56
58 -57 58 -139 -9z"/>
<path d="M4056 1989 c-26 -29 -45 -55 -44 -60 2 -4 42 -50 90 -103 48 -53 91
-108 94 -123 9 -33 -12 -72 -48 -92 -36 -20 -64 -7 -191 93 l-97 77 -28 -19
c-15 -11 -40 -33 -55 -49 l-28 -30 73 -60 c81 -66 143 -142 192 -233 l33 -61
93 62 c112 75 219 179 284 278 27 40 47 74 45 76 -3 2 -38 26 -80 53 -42 27
-121 93 -176 146 -55 53 -103 96 -106 96 -3 0 -26 -23 -51 -51z"/>
<path d="M3650 1833 c-93 -79 -283 -207 -376 -253 -38 -19 -71 -36 -73 -38 -3
-1 5 -22 17 -47 l21 -44 58 26 c146 66 307 180 496 353 5 4 -9 21 -30 37 l-38
30 -75 -64z"/>
<path d="M4500 1730 c0 -5 -27 -49 -59 -98 -71 -105 -175 -207 -293 -285 -90
-60 -98 -76 -59 -111 15 -13 25 -8 106 52 126 93 265 230 330 325 42 61 52 84
44 94 -9 10 -19 1 -46 -45 -19 -31 -48 -70 -65 -87 -32 -32 -30 -20 7 30 21
28 65 109 65 119 0 2 -7 6 -15 10 -8 3 -15 1 -15 -4z"/>
<path d="M3650 1604 c-25 -20 -69 -52 -97 -71 l-52 -35 57 -63 c32 -35 73 -90
92 -124 19 -33 37 -61 40 -61 23 -1 230 161 230 180 0 23 -198 211 -221 210
-2 0 -24 -16 -49 -36z"/>
<path d="M3899 1354 c-18 -20 -69 -61 -111 -91 -78 -54 -86 -65 -69 -92 7 -11
23 -4 78 35 37 26 91 70 120 97 44 41 51 52 42 68 -14 26 -20 24 -60 -17z"/>
<path d="M1938 4131 c-205 -67 -329 -260 -297 -461 31 -200 186 -353 370 -367
232 -17 429 142 469 378 30 178 -58 342 -228 426 -69 34 -84 38 -166 40 -67 2
-106 -2 -148 -16z m268 -80 c80 -37 147 -99 179 -166 34 -69 42 -169 20 -245
-8 -30 -17 -61 -18 -68 -2 -7 -27 -40 -57 -74 -71 -81 -154 -121 -259 -126
-41 -3 -92 1 -115 8 -96 27 -192 122 -232 230 -10 27 -17 77 -18 125 -1 68 3
88 27 137 91 185 295 262 473 179z"/>
<path d="M2000 3986 c-51 -13 -107 -45 -134 -75 -20 -22 -25 -19 72 -41 29 -7
124 -37 210 -66 86 -30 164 -54 173 -54 15 0 16 6 8 41 -19 84 -67 142 -150
184 -54 28 -107 31 -179 11z"/>
<path d="M1824 3855 c-17 -25 -41 -131 -32 -140 6 -6 273 -69 427 -101 40 -8
77 -12 81 -7 11 13 30 74 30 98 0 17 -7 24 -29 28 -16 4 -96 31 -178 60 -82
30 -179 61 -216 70 -67 15 -68 15 -83 -8z"/>
<path d="M1800 3680 c0 -9 5 -30 10 -47 10 -28 16 -31 145 -61 73 -17 165 -37
205 -43 71 -12 72 -12 98 14 14 15 24 28 21 30 -2 2 -111 31 -241 65 -210 53
-238 58 -238 42z"/>
<path d="M1849 3562 c48 -68 115 -102 200 -102 53 0 158 26 148 37 -3 2 -76
22 -163 43 -88 22 -170 43 -183 46 l-25 7 23 -31z"/>
</g>
</svg>
