<?xml version="1.0" standalone="no"?>
<!DOCTYPE svg PUBLIC "-//W3C//DTD SVG 20010904//EN"
 "http://www.w3.org/TR/2001/REC-SVG-20010904/DTD/svg10.dtd">
<svg version="1.0" xmlns="http://www.w3.org/2000/svg"
 width="9768.000000pt" height="2928.000000pt" viewBox="0 0 9768.000000 2928.000000"
 preserveAspectRatio="xMidYMid meet">
<metadata>
Created by potrace 1.15, written by Peter Selinger 2001-2017
</metadata>
<g transform="translate(0.000000,2928.000000) scale(0.100000,-0.100000)"
fill="#000000" stroke="none">
<path d="M75834 22221 c-82 -50 -141 -193 -183 -446 -12 -66 -28 -145 -37
-174 -39 -132 -114 -248 -207 -320 -63 -48 -330 -172 -539 -250 -161 -59 -249
-80 -568 -131 -135 -22 -482 -87 -770 -145 -729 -146 -823 -163 -1004 -175
-155 -10 -216 -19 -284 -41 l-33 -11 37 -29 c34 -27 43 -29 128 -30 50 0 99
-2 109 -4 10 -2 136 -6 280 -10 144 -4 278 -9 297 -11 19 -2 345 -6 725 -9
772 -5 792 -7 1025 -81 212 -66 574 -233 647 -297 72 -63 82 -101 128 -467 33
-265 54 -411 135 -950 17 -113 42 -247 55 -297 24 -91 77 -229 96 -247 14 -15
65 40 89 96 13 30 26 96 35 171 7 67 23 163 34 212 11 50 36 182 56 295 54
301 43 377 -70 462 -27 21 -54 47 -59 59 -14 31 10 158 51 269 93 252 236 419
437 510 98 45 350 126 527 169 404 100 733 117 1154 60 224 -30 501 -32 655
-5 153 27 153 27 100 61 -61 38 -136 71 -212 91 -52 14 -118 18 -388 19 -406
3 -592 24 -905 100 -319 78 -735 245 -934 375 -129 84 -229 196 -299 336 -81
162 -114 307 -127 554 -12 236 -18 269 -54 297 -24 19 -92 15 -127 -6z m71
-946 c303 -413 542 -624 823 -725 34 -12 62 -26 62 -29 0 -4 -55 -19 -122 -34
-314 -72 -472 -140 -583 -252 -101 -102 -151 -202 -184 -370 l-18 -90 -18 55
c-61 185 -170 312 -346 400 -35 18 -145 64 -243 102 -99 37 -219 89 -268 115
-88 46 -213 147 -203 163 3 4 92 57 198 116 435 243 613 388 757 617 23 38 46
65 50 60 4 -4 46 -62 95 -128z"/>
<path d="M59130 21507 c-52 -18 -80 -67 -80 -139 0 -111 39 -141 200 -153 221
-16 331 -55 387 -138 41 -62 54 -124 60 -288 5 -126 3 -144 -21 -229 -93 -325
-369 -623 -640 -689 -68 -17 -210 -15 -281 4 -215 57 -385 225 -442 438 -24
89 -24 348 0 437 47 173 142 291 298 369 46 23 92 51 102 63 23 28 21 68 -5
108 -58 85 -142 61 -328 -94 -213 -178 -281 -382 -259 -781 15 -263 50 -373
152 -477 71 -72 129 -101 325 -163 243 -77 336 -92 441 -73 88 16 149 49 271
148 227 185 386 368 455 524 56 126 70 199 68 361 -1 183 -19 262 -94 415 -88
178 -233 301 -407 345 -82 21 -162 25 -202 12z"/>
<path d="M28917 20756 c-88 -33 -177 -120 -255 -249 -97 -161 -129 -418 -71
-572 38 -103 127 -176 249 -206 79 -20 251 -17 325 5 249 75 478 270 564 481
32 80 40 202 17 272 -44 134 -206 222 -378 207 -54 -5 -80 0 -178 30 -135 43
-218 53 -273 32z m540 -324 c58 -30 73 -56 73 -122 0 -69 -33 -141 -87 -193
-43 -41 -234 -146 -322 -178 -135 -48 -293 5 -345 115 -39 83 4 298 72 360 18
16 30 17 84 10 85 -10 147 -6 248 16 111 25 219 21 277 -8z"/>
<path d="M47013 20400 c-22 -10 -49 -31 -60 -46 -42 -60 -48 -100 -48 -304 0
-250 14 -314 124 -557 97 -215 127 -462 101 -838 -5 -77 -12 -178 -15 -225
-21 -305 -110 -496 -284 -608 -95 -61 -521 -191 -761 -233 -106 -18 -174 -20
-875 -24 -548 -3 -768 -8 -788 -16 -28 -12 -67 -73 -67 -104 0 -25 38 -93 58
-104 10 -5 70 -12 133 -15 63 -4 256 -17 429 -31 667 -52 885 -66 1392 -90
141 -7 222 -29 307 -86 144 -96 253 -270 346 -552 76 -232 102 -407 120 -812
13 -305 61 -685 125 -1007 22 -108 40 -200 40 -205 1 -21 24 39 95 247 139
412 145 443 155 885 8 391 18 474 71 640 70 220 217 395 429 513 129 72 528
221 743 277 169 45 312 65 460 65 138 0 224 -11 362 -48 96 -26 110 -27 348
-26 l248 0 36 36 35 36 -23 32 c-23 30 -24 39 -24 193 0 171 -9 214 -43 204
-10 -3 -57 -17 -107 -31 -157 -47 -262 -60 -470 -60 -407 1 -736 97 -1332 390
-346 170 -346 170 -518 464 -350 600 -494 985 -550 1473 -8 76 -28 198 -44
270 -16 73 -33 155 -36 182 -16 113 -46 145 -112 115z m386 -2093 c218 -209
439 -384 683 -538 155 -98 478 -261 651 -330 59 -23 104 -45 100 -49 -34 -30
-268 -108 -493 -165 -270 -68 -415 -126 -570 -227 -148 -97 -200 -173 -220
-324 -6 -43 -16 -108 -21 -144 -32 -201 -155 -286 -268 -184 -56 50 -84 121
-89 226 -4 86 -4 87 39 174 36 73 44 98 44 144 0 73 -13 91 -132 188 -99 80
-363 328 -363 340 1 4 37 32 81 62 315 213 432 432 433 807 1 73 3 133 5 133
2 0 56 -51 120 -113z"/>
<path d="M86645 18289 c-86 -50 -102 -64 -126 -111 -25 -48 -24 -102 2 -158
13 -26 23 -74 26 -115 4 -61 1 -79 -25 -140 -48 -114 -54 -163 -56 -490 -1
-292 -2 -303 -30 -420 -91 -390 -261 -736 -573 -1167 -151 -210 -277 -326
-449 -415 -117 -61 -230 -96 -479 -147 -121 -25 -305 -66 -410 -91 -104 -25
-242 -57 -305 -71 -183 -40 -188 -42 -205 -74 -20 -39 -19 -69 5 -108 39 -64
138 -78 292 -43 46 11 124 24 173 30 109 13 406 14 605 1 164 -10 214 -23 408
-105 70 -29 170 -65 222 -80 301 -84 477 -245 569 -520 36 -109 54 -209 75
-415 29 -294 35 -434 52 -1255 3 -165 7 -307 9 -315 1 -8 5 -109 9 -225 4
-115 9 -232 11 -260 3 -27 10 -160 15 -295 17 -414 29 -663 33 -667 2 -1 46
11 98 28 l96 30 6 257 c3 141 15 361 27 487 26 274 23 513 -10 830 -20 197
-43 661 -35 713 2 15 6 90 9 167 13 356 109 832 205 1023 78 154 274 293 553
391 191 66 437 89 653 60 64 -8 149 -9 295 -3 247 10 343 7 433 -12 38 -8 72
-14 78 -14 13 0 -28 99 -58 139 -39 51 -80 63 -233 67 -329 9 -661 62 -862
137 -245 93 -393 220 -536 459 -91 153 -121 211 -167 318 -17 42 -61 119 -97
171 -35 52 -72 110 -81 130 -16 36 -81 414 -111 649 -41 321 -46 679 -12 935
19 142 19 368 0 570 -7 77 -13 146 -14 153 0 18 -9 15 -85 -29z m-81 -2282
c90 -293 238 -544 456 -770 131 -136 258 -243 414 -347 l108 -72 -33 -35 c-19
-19 -54 -47 -79 -61 -40 -24 -58 -27 -170 -33 -145 -6 -182 -21 -288 -111
-243 -208 -377 -503 -383 -848 -1 -56 -14 -142 -18 -116 -13 99 -106 567 -120
608 -32 94 -99 212 -159 284 -107 127 -267 226 -477 294 -101 33 -337 119
-343 125 -2 1 39 37 91 78 331 267 586 583 777 965 38 75 83 173 100 217 18
44 37 91 42 105 9 22 13 9 34 -88 13 -63 35 -150 48 -195z"/>
<path d="M15323 16899 c-47 -9 -74 -30 -135 -101 -29 -35 -96 -106 -149 -158
-58 -58 -106 -115 -122 -146 -95 -189 -27 -419 151 -506 136 -67 279 -34 395
92 109 117 150 241 151 455 1 158 -12 214 -64 277 -50 61 -158 102 -227 87z
m96 -269 c22 -11 29 -28 42 -94 10 -56 -15 -186 -51 -255 -41 -82 -165 -136
-231 -101 -26 15 -49 62 -49 105 0 46 28 168 50 220 43 99 167 164 239 125z"/>
<path d="M22710 14064 c-31 -13 -60 -48 -66 -80 -10 -54 -12 -90 -19 -324 -4
-124 -13 -270 -21 -325 -73 -520 -480 -941 -977 -1010 -85 -11 -251 -7 -348
11 -133 23 -266 21 -327 -6 -80 -36 -127 -91 -116 -135 8 -31 82 -71 213 -115
117 -39 204 -40 316 -3 143 47 348 28 595 -54 329 -109 578 -334 748 -678 54
-109 84 -185 228 -590 93 -262 122 -323 166 -346 31 -17 97 -13 119 7 18 17
19 36 19 408 -1 431 3 477 56 654 87 287 199 422 406 487 75 24 164 38 433 70
72 9 276 38 455 65 493 75 713 98 930 100 139 2 230 14 280 40 35 18 140 122
140 139 0 4 -30 2 -67 -5 -134 -26 -251 -18 -562 36 -137 24 -186 25 -506 15
-296 -10 -488 12 -965 110 -230 48 -329 78 -446 136 -249 122 -375 325 -438
704 -23 138 -27 194 -30 405 -4 212 -9 236 -58 264 -30 18 -131 31 -158 20z
m160 -1228 c40 -30 127 -106 194 -168 167 -157 241 -218 325 -268 157 -93 171
-166 55 -280 -109 -108 -124 -132 -287 -470 -31 -64 -80 -150 -109 -190 l-52
-75 -7 30 c-4 17 -13 56 -19 87 -24 122 -103 232 -225 314 -33 22 -127 76
-210 118 -82 43 -180 98 -217 122 -65 44 -182 159 -176 174 2 5 80 89 175 188
198 209 290 320 357 432 l47 80 38 -20 c21 -10 71 -44 111 -74z"/>
<path d="M70208 10940 c-22 -13 -104 -210 -119 -288 -15 -78 -8 -158 22 -242
34 -96 32 -245 -6 -405 -69 -300 -171 -492 -354 -671 -181 -179 -370 -277
-856 -450 -359 -127 -412 -150 -444 -190 -29 -37 -29 -106 0 -135 22 -22 24
-22 362 -16 365 6 486 -1 612 -34 299 -77 453 -176 535 -342 47 -96 71 -203
95 -422 9 -82 43 -328 75 -545 77 -513 90 -629 100 -903 6 -165 13 -242 25
-277 18 -55 90 -142 137 -166 28 -14 29 -14 24 3 -36 122 -31 301 15 543 29
149 32 179 29 315 -13 547 -3 663 91 1145 70 354 120 504 213 634 172 241 483
350 1034 361 160 4 220 9 241 20 53 27 80 150 47 214 -28 54 -54 58 -431 71
-283 10 -361 20 -500 66 -180 60 -336 155 -471 289 -149 148 -249 318 -302
513 -23 85 -26 117 -26 262 -1 107 4 190 13 235 19 90 20 217 2 278 -9 30 -31
67 -58 98 -45 49 -70 59 -105 39z m237 -1471 c99 -95 212 -197 250 -229 76
-62 214 -155 245 -165 28 -9 26 -18 -23 -93 -55 -85 -115 -156 -257 -307 -121
-128 -205 -234 -240 -302 -44 -86 -126 -130 -191 -103 -16 7 -47 33 -67 58
-64 79 -158 140 -380 248 -118 57 -248 128 -290 156 -85 60 -89 52 40 78 122
24 241 110 319 230 20 30 73 127 119 215 46 88 102 187 125 220 42 59 146 165
162 165 5 0 89 -77 188 -171z"/>
<path d="M52092 6256 c-111 -21 -224 -61 -357 -126 -336 -163 -559 -410 -669
-740 -118 -355 -94 -614 73 -781 149 -148 327 -166 518 -53 72 43 183 130 183
144 0 20 -81 9 -151 -22 -64 -27 -86 -31 -164 -32 -101 -1 -149 12 -215 56
-99 66 -151 178 -151 328 -1 441 439 946 916 1052 105 23 269 20 370 -7 145
-39 316 -146 457 -286 221 -220 291 -464 211 -739 -71 -247 -239 -412 -502
-494 -76 -24 -174 -35 -328 -36 -53 0 -82 -78 -48 -127 25 -36 77 -46 193 -39
477 31 787 279 910 729 23 87 23 298 -1 387 -40 145 -144 306 -302 466 -149
150 -304 247 -482 300 -74 23 -111 27 -238 30 -99 2 -175 -1 -223 -10z"/>
<path d="M18284 2689 c-212 -16 -369 -99 -514 -272 -66 -78 -224 -307 -258
-372 -80 -158 -70 -355 25 -496 180 -266 254 -356 341 -416 91 -62 151 -76
305 -75 603 7 912 160 1102 545 63 128 87 226 88 362 2 174 -47 304 -160 426
-76 82 -113 103 -169 96 -55 -6 -97 -42 -126 -105 -32 -71 -22 -90 127 -237
160 -157 190 -204 190 -295 0 -49 -7 -79 -27 -121 -29 -63 -112 -190 -160
-245 -71 -80 -222 -176 -360 -228 -165 -63 -409 -85 -554 -51 -276 64 -481
344 -460 630 12 166 84 307 243 476 126 133 248 190 406 190 51 0 108 -5 127
-11 19 -5 58 -10 87 -10 46 0 55 3 70 26 24 38 20 110 -9 141 -38 40 -150 55
-314 42z"/>
<path d="M83149 94 c-25 -30 -78 -46 -129 -39 -93 13 -126 13 -158 -1 -23 -9
-32 -19 -30 -31 3 -16 21 -18 191 -21 l187 -2 0 27 c-1 16 -11 41 -24 56 -21
26 -24 27 -37 11z"/>
</g>
</svg>
