<?xml version="1.0" standalone="no"?>
<!DOCTYPE svg PUBLIC "-//W3C//DTD SVG 20010904//EN"
 "http://www.w3.org/TR/2001/REC-SVG-20010904/DTD/svg10.dtd">
<svg version="1.0" xmlns="http://www.w3.org/2000/svg"
 width="800.000000pt" height="231.000000pt" viewBox="0 0 800.000000 231.000000"
 preserveAspectRatio="xMidYMid meet">
<metadata>
Created by potrace 1.15, written by Peter Selinger 2001-2017
</metadata>
<g transform="translate(0.000000,231.000000) scale(0.100000,-0.100000)"
fill="#000000" stroke="none">
<path d="M7699 2212 c-6 -15 -24 -55 -41 -90 -16 -35 -28 -65 -26 -67 1 -1 17
-10 34 -18 l31 -16 42 89 c22 48 41 93 41 98 0 5 -16 14 -36 20 -33 10 -36 9
-45 -16z"/>
<path d="M7472 1845 c-34 -41 -62 -78 -62 -83 0 -5 10 -18 23 -30 l23 -22 40
43 c51 53 94 106 94 116 0 4 -13 17 -28 28 l-29 21 -61 -73z"/>
<path d="M1795 1673 c-25 -5 -119 -35 -123 -38 -4 -3 25 -75 30 -75 2 0 32 9
66 20 35 11 75 20 88 20 21 0 24 4 24 40 0 39 -1 40 -32 39 -18 -1 -42 -3 -53
-6z"/>
<path d="M7224 1606 c-28 -23 -63 -51 -79 -62 l-28 -21 23 -31 c23 -31 24 -32
49 -15 62 40 130 99 130 114 1 8 -9 25 -21 36 l-23 21 -51 -42z"/>
<path d="M2048 1595 c-23 -30 -23 -31 8 -63 14 -15 35 -46 46 -69 19 -44 26
-47 66 -37 19 6 22 11 17 33 -15 62 -83 161 -109 161 -6 0 -19 -11 -28 -25z"/>
<path d="M1450 1473 c-73 -79 -81 -100 -50 -124 14 -10 28 -19 32 -19 3 0 22
21 41 48 19 26 47 58 61 71 l25 24 -20 28 c-11 16 -24 29 -29 29 -4 0 -31 -26
-60 -57z"/>
<path d="M4473 1493 c-19 -4 -21 -9 -16 -41 3 -20 6 -38 7 -38 1 -1 45 1 99 3
l97 6 0 38 0 39 -82 -1 c-46 -1 -93 -4 -105 -6z"/>
<path d="M4837 1454 c-4 -21 -5 -39 -3 -41 6 -6 189 -34 193 -30 2 3 6 20 10
40 l5 35 -73 11 c-41 7 -86 14 -100 17 -24 5 -27 1 -32 -32z"/>
<path d="M4166 1420 c-43 -16 -81 -32 -83 -34 -3 -3 1 -21 8 -41 10 -25 18
-34 29 -30 8 4 50 18 92 33 80 28 85 33 68 76 -12 32 -16 32 -114 -4z"/>
<path d="M6887 1379 l-87 -50 16 -32 c9 -18 18 -34 20 -36 6 -7 174 94 174
104 0 6 -8 22 -18 37 l-17 27 -88 -50z"/>
<path d="M5210 1384 c-17 -43 -12 -48 68 -76 42 -15 84 -29 93 -33 12 -5 20 2
28 26 6 18 11 35 11 40 0 7 -162 69 -181 69 -5 0 -14 -12 -19 -26z"/>
<path d="M3828 1249 c-43 -28 -78 -57 -78 -64 0 -7 8 -23 18 -36 l19 -22 77
49 c43 26 80 52 82 56 6 9 -24 68 -34 68 -4 -1 -42 -24 -84 -51z"/>
<path d="M2095 1251 c-3 -11 -28 -43 -55 -72 l-49 -52 20 -29 c11 -15 24 -28
28 -28 9 0 93 88 115 120 23 35 20 47 -14 65 -37 19 -37 19 -45 -4z"/>
<path d="M5556 1225 c-9 -13 -16 -28 -16 -33 0 -4 32 -34 72 -66 74 -61 87
-63 112 -23 8 13 4 23 -19 47 -29 31 -118 100 -128 100 -2 0 -12 -11 -21 -25z"/>
<path d="M6545 1218 c-44 -18 -82 -33 -84 -34 -5 -4 7 -46 18 -63 7 -11 25 -7
95 19 48 18 89 37 92 42 8 13 -16 68 -30 67 -6 0 -47 -14 -91 -31z"/>
<path d="M1325 1143 c6 -35 44 -164 51 -171 1 -2 19 1 39 8 28 9 35 16 29 29
-16 39 -44 134 -44 152 0 16 -7 19 -40 19 l-41 0 6 -37z"/>
<path d="M6178 1111 l-78 -16 0 -33 c0 -20 6 -35 15 -38 9 -4 56 1 105 11 89
17 90 18 84 44 -13 59 -4 57 -126 32z"/>
<path d="M3513 1022 c-40 -31 -72 -59 -73 -62 0 -3 11 -18 23 -34 l24 -29 76
59 c42 32 76 64 76 69 0 13 -35 55 -46 55 -4 0 -40 -26 -80 -58z"/>
<path d="M5880 1064 c-8 -1 -48 -8 -88 -15 l-74 -11 7 -37 c4 -20 8 -37 9 -39
4 -4 188 26 193 32 2 2 1 20 -2 40 -7 35 -12 38 -45 30z"/>
<path d="M184 1005 c-3 -20 -4 -38 -2 -41 7 -7 187 -38 192 -33 2 2 7 20 11
40 l7 36 -79 12 c-43 7 -88 15 -100 18 -19 4 -23 -1 -29 -32z"/>
<path d="M1755 995 c-38 -19 -74 -36 -79 -38 -6 -2 -3 -19 5 -39 l14 -36 85
35 c47 19 89 39 94 43 13 13 -14 70 -33 69 -9 0 -47 -16 -86 -34z"/>
<path d="M5460 975 c-103 -33 -114 -42 -99 -83 6 -17 13 -32 15 -32 3 0 45 14
95 31 l90 32 -7 31 c-3 17 -9 34 -13 38 -3 3 -40 -4 -81 -17z"/>
<path d="M557 933 c-4 -20 -4 -39 -2 -42 5 -4 188 -41 191 -38 1 1 5 18 9 39
8 41 10 39 -90 58 -33 6 -70 13 -81 15 -18 4 -22 -1 -27 -32z"/>
<path d="M5805 948 c-11 -6 -22 -12 -24 -14 -2 -2 10 -44 25 -93 l29 -91 34 0
34 0 -6 48 c-7 61 -45 162 -60 162 -7 0 -21 -6 -32 -12z"/>
<path d="M1455 900 c-16 -4 -49 -8 -72 -9 -64 -2 -73 -8 -73 -53 l0 -39 48 6
c26 3 64 8 85 11 30 5 36 3 31 -10 -6 -15 27 -68 85 -136 l29 -35 26 24 c32
30 32 42 5 67 -12 10 -35 39 -52 64 -17 25 -36 50 -43 55 -6 6 -14 22 -18 38
-4 15 -10 26 -14 26 -4 -1 -20 -5 -37 -9z"/>
<path d="M937 893 c-4 -3 -7 -21 -7 -39 0 -31 2 -32 48 -38 26 -3 71 -8 100
-12 l52 -6 0 41 c0 34 -4 41 -22 45 -46 9 -165 16 -171 9z"/>
<path d="M3217 789 l-77 -60 17 -30 c10 -16 22 -29 28 -29 15 0 145 99 152
116 4 12 -26 64 -37 63 -3 0 -40 -27 -83 -60z"/>
<path d="M5124 792 c-32 -27 -68 -59 -78 -71 -19 -21 -19 -21 4 -46 29 -31 42
-31 66 0 10 13 38 39 61 57 47 35 52 51 24 86 l-18 24 -59 -50z"/>
<path d="M2915 584 c-44 -24 -84 -45 -88 -47 -5 -1 -1 -19 9 -40 l17 -37 89
47 c48 26 88 51 88 57 0 6 -8 23 -18 38 l-17 26 -80 -44z"/>
<path d="M1755 553 c-13 -19 -15 -31 -8 -42 10 -16 140 -91 159 -91 10 0 34
41 34 60 0 5 -24 22 -52 36 -29 15 -65 35 -80 45 -33 24 -32 24 -53 -8z"/>
<path d="M5826 568 c-4 -12 -40 -123 -52 -159 -5 -14 31 -39 57 -39 13 0 42
70 59 139 10 44 10 55 -1 62 -21 13 -59 11 -63 -3z"/>
<path d="M4947 498 c-13 -49 26 -198 51 -198 6 0 20 8 60 35 1 1 -7 22 -18 46
-11 24 -20 63 -20 87 0 27 -5 42 -12 42 -7 0 -23 3 -34 6 -17 4 -23 0 -27 -18z"/>
<path d="M2557 446 l-88 -21 6 -35 c4 -19 9 -37 11 -39 5 -6 168 29 184 39 10
6 11 17 4 41 -5 18 -14 33 -19 34 -6 2 -50 -7 -98 -19z"/>
<path d="M2106 429 c-24 -76 -22 -77 105 -86 l89 -6 0 40 0 40 -77 6 c-43 3
-86 8 -95 12 -11 4 -19 2 -22 -6z"/>
<path d="M5646 251 c-9 -10 -43 -31 -76 -45 -58 -26 -58 -27 -49 -59 5 -17 9
-33 9 -34 0 -18 120 36 170 76 l25 20 -21 27 c-26 36 -37 39 -58 15z"/>
<path d="M5156 201 c-9 -16 -16 -33 -16 -36 0 -11 106 -53 152 -60 42 -6 46
-5 51 17 12 43 8 58 -15 58 -20 1 -91 23 -140 44 -12 6 -21 0 -32 -23z"/>
</g>
</svg>
