<?xml version="1.0" standalone="no"?>
<!DOCTYPE svg PUBLIC "-//W3C//DTD SVG 20010904//EN"
 "http://www.w3.org/TR/2001/REC-SVG-20010904/DTD/svg10.dtd">
<svg version="1.0" xmlns="http://www.w3.org/2000/svg"
 width="981.000000pt" height="986.000000pt" viewBox="0 0 981.000000 986.000000"
 preserveAspectRatio="xMidYMid meet">
<metadata>
Created by potrace 1.15, written by Peter Selinger 2001-2017
</metadata>
<g transform="translate(0.000000,986.000000) scale(0.100000,-0.100000)"
fill="#000000" stroke="none">
<path d="M0 4930 l0 -4930 4905 0 4905 0 0 4930 0 4930 -4905 0 -4905 0 0
-4930z m7451 4025 c3 -55 12 -113 18 -130 16 -40 58 -82 102 -105 37 -19 89
-73 89 -92 0 -6 -15 -31 -34 -57 -45 -63 -64 -100 -76 -157 -5 -27 -12 -59
-15 -71 -9 -38 -29 -26 -74 42 -47 73 -98 112 -163 127 -46 10 -88 42 -88 67
0 9 17 25 37 36 20 11 46 35 56 52 34 60 88 230 93 300 7 87 10 95 31 91 15
-3 19 -19 24 -103z m-5790 -595 c10 -152 35 -211 119 -272 45 -34 49 -47 19
-74 -35 -31 -57 -86 -75 -183 -9 -51 -20 -89 -23 -84 -4 4 -24 34 -45 65 -42
64 -84 99 -151 128 -39 17 -45 23 -45 50 0 19 19 62 49 113 58 97 97 206 107
300 6 55 10 67 23 65 13 -3 17 -23 22 -108z m3724 -941 c698 -102 1289 -453
1709 -1014 186 -248 335 -539 400 -783 42 -157 61 -177 228 -235 140 -48 1068
-426 1195 -487 247 -117 382 -255 429 -441 47 -184 -50 -373 -257 -501 -122
-76 -262 -124 -469 -162 -194 -36 -957 -136 -1033 -136 -152 0 -193 -26 -271
-166 -340 -615 -961 -1093 -1646 -1269 -790 -203 -1676 -11 -2306 500 -453
368 -810 943 -914 1470 -32 158 -55 206 -110 227 -14 5 -73 20 -131 33 -303
67 -815 266 -1242 482 -307 156 -411 234 -467 356 -114 243 39 527 349 646 93
36 192 57 336 71 132 12 1227 60 1389 60 115 0 115 0 151 31 20 18 54 64 77
103 94 163 267 377 422 523 445 421 1011 672 1616 717 118 8 409 -4 545 -25z
m-2264 -5880 c7 -14 9 -46 4 -94 -8 -94 5 -126 83 -195 l60 -54 -48 -97 c-59
-116 -67 -153 -46 -204 18 -43 20 -71 6 -80 -20 -12 -47 15 -85 86 -43 78 -94
127 -168 159 -26 12 -51 29 -57 40 -14 26 -12 60 3 60 7 0 34 13 59 29 58 37
103 123 119 231 12 80 33 140 48 140 6 0 15 -10 22 -21z m4544 1 c75 -29 135
-109 135 -182 0 -80 -84 -172 -179 -198 -59 -16 -94 -7 -146 35 -72 60 -91
127 -60 214 26 74 50 99 118 120 72 23 96 25 132 11z"/>
<path d="M7396 8742 c-16 -32 -56 -139 -56 -148 0 -2 35 -33 77 -69 l77 -66
38 73 c20 40 37 80 38 88 0 9 -28 43 -62 76 -95 91 -92 90 -112 46z"/>
<path d="M1593 8148 c-32 -56 -74 -141 -70 -144 24 -19 140 -94 146 -94 4 0
17 32 30 70 l22 70 -41 75 c-23 41 -45 75 -49 75 -4 0 -21 -24 -38 -52z"/>
<path d="M4735 7388 c-405 -45 -884 -240 -1226 -497 -171 -129 -274 -228 -308
-296 -25 -49 -49 -77 -106 -124 -108 -90 -301 -339 -293 -380 5 -24 224 -32
978 -36 l645 -3 340 -36 c287 -29 371 -42 535 -80 107 -24 202 -47 210 -50 15
-6 622 -110 825 -142 139 -21 631 -127 867 -185 211 -53 236 -56 244 -35 11
28 -121 334 -215 501 -63 110 -387 580 -437 631 -16 18 -48 37 -71 43 -35 9
-41 16 -52 51 -14 48 -100 124 -266 235 -277 186 -573 302 -940 370 -240 44
-522 57 -730 33z m1825 -772 c9 -12 9 -21 -2 -42 -11 -22 -31 -33 -128 -64
-63 -21 -146 -50 -184 -64 -65 -26 -96 -28 -96 -8 0 10 111 63 246 117 47 19
97 44 111 55 31 24 37 25 53 6z"/>
<path d="M2280 6003 c-30 -2 -173 -10 -316 -18 -144 -8 -286 -20 -315 -26 -30
-6 -101 -11 -159 -10 -124 0 -225 -17 -411 -70 -248 -70 -273 -82 -418 -204
-98 -82 -121 -121 -121 -202 0 -72 30 -139 92 -208 69 -77 316 -230 572 -355
207 -101 281 -131 611 -246 72 -25 166 -59 210 -75 44 -16 126 -40 182 -54
181 -45 177 -31 -12 45 -126 51 -492 223 -645 303 -140 73 -338 214 -449 320
-73 69 -99 153 -67 215 23 44 108 117 156 134 146 51 945 103 1230 80 80 -7
225 -12 324 -12 98 0 253 -5 345 -10 91 -6 294 -15 451 -20 481 -16 960 -69
1400 -155 96 -19 220 -39 275 -45 55 -6 145 -19 200 -30 199 -39 512 -92 625
-105 82 -10 190 -36 375 -89 144 -41 337 -91 430 -111 253 -54 292 -65 632
-179 452 -152 749 -278 1035 -439 145 -82 159 -94 183 -151 35 -83 -1 -149
-130 -235 -102 -68 -423 -192 -639 -247 -56 -14 -108 -32 -116 -40 -23 -23 65
-18 272 15 101 16 230 32 288 36 128 8 259 33 405 75 205 59 328 132 458 269
97 103 109 173 53 311 -34 83 -88 153 -185 239 -89 78 -232 152 -506 263 -82
33 -184 78 -225 99 -41 21 -106 45 -145 54 -100 22 -177 48 -371 126 -395 158
-1028 344 -1319 389 -71 10 -231 40 -355 65 -124 25 -272 50 -330 55 -58 5
-184 24 -280 41 -96 17 -231 35 -300 39 -69 5 -224 21 -345 35 -121 14 -242
25 -270 25 -27 0 -131 14 -229 30 -178 30 -183 31 -430 24 -187 -4 -307 -2
-471 10 -346 26 -586 31 -723 16 -103 -11 -131 -11 -208 3 -98 17 -228 25
-314 20z"/>
<path d="M1845 5559 c-66 -5 -184 -13 -262 -18 -156 -11 -283 -39 -356 -79
-57 -30 -117 -94 -117 -122 0 -69 51 -119 274 -272 171 -118 518 -296 763
-392 181 -70 204 -77 210 -60 6 17 -31 37 -177 93 -74 28 -146 59 -160 69 -61
45 -97 169 -66 229 33 66 134 97 306 97 319 -2 786 -28 1375 -80 220 -19 589
-48 820 -64 713 -51 889 -72 1205 -140 277 -59 468 -96 580 -109 46 -6 138
-22 205 -36 66 -14 235 -48 375 -76 537 -106 747 -156 829 -198 42 -21 108
-48 146 -61 156 -50 288 -145 301 -216 8 -45 -19 -91 -76 -126 -56 -35 -247
-107 -314 -119 -28 -5 -76 -14 -106 -19 -31 -6 -71 -21 -90 -33 l-35 -22 56
-3 c71 -4 207 24 432 88 435 123 677 242 677 334 0 17 -7 41 -15 54 -26 36
-143 106 -357 211 -211 103 -259 122 -493 192 -77 23 -162 54 -190 68 -45 25
-171 68 -565 192 -275 86 -1098 270 -1435 319 -77 12 -248 41 -380 65 -132 24
-294 51 -360 60 -66 9 -185 25 -265 37 -80 11 -230 24 -335 28 -104 5 -275 18
-380 29 -303 32 -737 59 -1050 66 -159 3 -321 10 -360 15 -84 11 -443 10 -610
-1z"/>
<path d="M2074 5009 c-64 -18 -87 -83 -48 -136 10 -14 46 -42 79 -62 68 -40
218 -96 238 -88 10 4 16 41 21 138 6 120 5 135 -10 146 -21 15 -230 17 -280 2z"/>
<path d="M2466 4999 c-32 -46 -15 -583 20 -640 4 -6 10 -46 15 -88 12 -115
126 -440 201 -574 89 -159 320 -487 383 -543 19 -17 48 -61 65 -99 58 -130
315 -353 611 -528 236 -141 559 -251 873 -298 293 -43 740 -33 951 21 297 77
554 190 793 350 340 228 520 407 706 703 30 49 79 119 109 155 87 108 116 157
177 296 78 178 126 310 150 408 32 132 32 131 -52 166 -97 40 -251 92 -272 92
-9 0 -67 20 -129 44 -62 25 -137 48 -167 51 -30 4 -89 17 -130 30 -41 13 -111
28 -155 35 -44 7 -132 25 -196 41 -64 16 -174 35 -245 44 -71 8 -152 21 -179
29 -28 7 -99 19 -160 26 -60 6 -189 27 -285 45 -96 19 -213 39 -260 44 -47 6
-157 19 -245 30 -88 11 -232 23 -320 26 -88 3 -227 13 -310 21 -82 9 -212 21
-287 29 -75 7 -142 16 -149 21 -7 4 -72 11 -143 15 -72 5 -162 13 -201 18 -38
6 -121 10 -184 11 -63 0 -165 5 -225 11 -77 8 -152 8 -244 1 -99 -7 -160 -6
-240 3 -240 29 -258 29 -276 4z m4608 -1048 c7 -11 -31 -45 -80 -69 -63 -32
-308 -126 -432 -166 -117 -38 -215 -49 -178 -21 10 8 61 28 112 44 106 34 292
108 439 174 102 46 130 54 139 38z m-150 -339 c14 -23 -24 -43 -198 -107 -155
-56 -590 -185 -624 -185 -44 0 -17 23 54 46 38 12 141 45 229 73 88 28 237 80
330 115 171 65 200 73 209 58z m-250 -310 c15 -24 -74 -74 -254 -140 -74 -28
-153 -58 -175 -67 -22 -10 -69 -25 -105 -35 -36 -10 -146 -46 -245 -79 -175
-60 -225 -71 -225 -51 0 15 23 25 316 126 278 95 499 179 604 228 58 27 76 31
84 18z m-521 -431 c24 -9 12 -15 -258 -132 -259 -112 -330 -138 -377 -139 -49
0 -58 18 -17 33 18 7 164 65 324 129 159 64 295 117 300 117 6 0 18 -4 28 -8z"/>
<path d="M7622 4266 c-15 -18 -94 -315 -87 -326 10 -16 38 -12 209 26 178 40
196 47 244 97 42 43 39 63 -13 99 -52 35 -340 121 -353 104z"/>
<path d="M3066 1239 c-10 -17 -38 -55 -61 -83 l-43 -53 63 -46 c35 -26 68 -47
73 -47 8 0 35 53 77 153 l15 35 -50 36 c-28 20 -51 36 -53 36 -1 0 -11 -14
-21 -31z"/>
<path d="M7560 1500 c-19 -5 -44 -20 -55 -34 -88 -110 -92 -131 -40 -199 26
-35 46 -49 77 -58 63 -17 123 -4 168 37 32 29 39 42 42 82 7 71 -23 146 -66
166 -37 17 -71 19 -126 6z"/>
</g>
</svg>
